<svg width="472" height="478" viewBox="0 0 472 478" fill="none" xmlns="http://www.w3.org/2000/svg">
<path fill-rule="evenodd" clip-rule="evenodd" d="M405.733 73.1814C460.185 124.86 475.395 201.93 471.397 276.86C467.566 348.661 446.168 425.026 384.946 462.761C327.997 497.862 259.694 463.525 194.751 447.373C129.027 431.028 50.4424 430.323 17.2416 371.312C-18.0272 308.627 6.99259 232.524 37.1442 167.248C69.414 97.3871 111.394 25.0279 185.989 5.99068C264.058 -13.9333 347.287 17.7123 405.733 73.1814Z" fill="white"/>
<g clip-path="url(#clip0_13_398)">
<path d="M283.659 46.5096C286.404 45.9116 289.213 46.97 291.797 48.0705C341.25 69.1331 379.837 114.127 393.103 166.199C406.369 218.271 394.011 276.233 360.659 318.374C327.307 360.515 273.722 385.874 219.974 384.952C218.882 391.193 217.789 397.433 216.697 403.673C216.695 398.384 216.61 392.787 213.835 388.285C211.059 383.783 204.555 381.145 200.303 384.293C194.495 391.227 198.984 403.793 207.873 405.48C206.134 409.556 199.43 408.286 197.176 404.471C194.923 400.655 195.434 395.904 195.087 391.487C194.74 387.069 192.7 381.99 188.353 381.123C175.448 378.55 162.79 374.739 150.611 369.76C142.728 366.537 133.643 360.207 135.49 351.896C136.855 345.758 144.121 342.471 150.357 343.297C156.593 344.122 161.972 347.924 167.069 351.61C169.727 342.426 172.386 333.243 175.044 324.06C166.677 324.448 164.328 312.193 157.277 307.671C125.021 286.985 103.517 250.422 101.123 212.188C98.7282 173.954 115.502 134.995 144.926 110.449C174.35 85.9031 215.697 76.3775 252.901 85.5733C257.315 80.1453 265.567 78.2657 271.898 81.2461C277.818 78.2268 277.515 69.8516 276.772 63.2504C276.028 56.6492 277.166 47.9244 283.659 46.5096ZM179.263 354.539C176.826 351.842 179.217 353.437 179.217 353.437L179.263 354.843V355.486C179.263 355.486 173.356 353.201 170.519 352.276C219.039 368.659 275.503 359.128 315.951 327.728C356.399 296.327 379.614 244.002 375.744 192.955C371.875 141.909 341.038 93.6768 296.319 68.7267C295.252 68.1316 294.057 67.5294 292.864 67.7884C291.331 68.121 290.46 69.7008 289.786 71.117C287.542 75.8368 285.297 80.5566 283.052 85.2764C288.34 88.3802 291.166 95.1598 289.646 101.098C319.908 120.271 340.981 153.301 345.608 188.815C350.235 224.329 338.328 261.653 313.988 287.933C289.648 314.214 253.336 328.952 217.557 327.074C209.172 326.633 200.14 325.473 192.915 329.749C184.561 334.692 181.56 345.111 179.263 354.539Z" fill="white"/>
<path d="M167.018 134.255C166.337 134.264 166.043 135.106 165.933 135.778C165.518 138.334 165.103 140.889 164.688 143.445C167.884 143.38 171.486 143.132 173.566 140.705C170.703 140.223 168.562 137.13 169.121 134.282C170.139 135.854 171.516 137.193 173.116 138.168C173.912 138.654 174.833 139.129 175.144 140.008C175.659 141.462 174.211 142.807 172.948 143.692C171.684 144.577 170.271 145.989 170.868 147.411C169.699 146.064 167.988 145.201 166.21 145.062C165.192 144.983 164.066 145.102 163.252 144.486C161.94 143.493 162.388 141.428 163.113 139.951C163.838 138.475 164.721 136.724 163.907 135.294C163.298 134.224 161.873 133.695 161.552 132.507C161.084 130.774 163.232 129.565 164.971 129.121C166.182 128.812 167.457 128.538 168.67 128.839C169.882 129.139 171 130.191 170.955 131.44C170.378 133.056 168.735 134.231 167.018 134.255ZM169.856 130.945C168.119 129.962 165.802 130.119 164.213 131.327C163.691 131.723 163.215 132.417 163.531 132.991C165.796 133.135 168.105 132.388 169.856 130.945Z" fill="url(#paint0_linear_13_398)"/>
<path d="M292.588 225.493C291.824 225.19 291.145 224.674 290.649 224.019C292.495 223.213 294.009 221.674 294.784 219.816C295.278 218.634 297.043 218.612 298.105 219.33C299.166 220.048 299.828 221.221 300.794 222.063C301.76 222.905 303.368 223.327 304.253 222.401C305.285 221.32 307.289 222.191 307.814 223.59C308.338 224.988 307.877 226.542 307.415 227.962C307.146 228.787 306.853 229.651 306.211 230.235C305.568 230.819 304.46 230.986 303.866 230.353C301.535 227.869 296.882 228.272 295.014 231.12C293.146 229.995 292.123 227.623 292.588 225.493ZM295.96 221.66C294.291 223.346 293.725 226.032 294.572 228.247C294.767 228.757 295.421 229.3 295.759 228.871C297.309 226.898 300.134 226.036 302.523 226.805C302.975 226.951 303.376 226.354 303.247 225.897C303.119 225.441 302.691 225.144 302.293 224.885C300.587 223.777 298.881 222.669 297.176 221.561C296.977 221.432 296.758 221.297 296.523 221.321C296.3 221.343 296.117 221.501 295.96 221.66ZM305.147 229.697C305.843 228.098 306.315 226.401 306.544 224.673C306.595 224.29 306.407 223.716 306.05 223.863C303.939 224.84 303.43 228.128 305.147 229.697Z" fill="url(#paint1_linear_13_398)"/>
<path d="M239.455 226.455C236.285 224.019 232.269 222.066 230.948 218.294C228.7 211.879 221.57 208.527 218.04 202.718C215.06 197.813 214.97 191.671 215.86 186.002C218.09 171.798 226.874 157.986 240.328 152.901C246.748 150.475 253.755 150.137 260.618 150.207C266.524 150.268 272.63 150.663 277.892 153.345C283.153 156.028 287.378 161.55 286.824 167.428C286.601 169.794 285.64 172.063 285.596 174.438C285.475 180.947 291.853 185.435 297.493 188.69C302.933 191.829 308.372 194.969 313.811 198.108C316.618 199.728 317.002 203.551 317.061 206.79C317.222 215.648 317.384 224.507 317.545 233.366C317.577 235.136 317.606 236.934 317.149 238.645C316.655 240.491 315.621 242.139 314.601 243.755C304.435 259.866 293.403 276.772 276.249 285.067C272.494 286.883 268.534 288.233 264.586 289.578C260.896 290.835 257.206 292.092 253.517 293.35C250.791 294.278 247.981 295.219 245.106 295.056C242.231 294.893 239.239 293.356 238.229 290.66C237.643 289.095 237.784 287.359 238.029 285.706C238.863 280.078 240.823 274.618 243.76 269.744C247.858 262.943 250.321 255.012 249.844 247.087C249.368 239.162 245.752 231.295 239.455 226.455ZM226.826 207.675C234.464 214.776 241.251 222.792 246.995 231.495C248.974 234.493 250.848 237.613 251.903 241.046C253.949 247.703 252.733 254.966 250.368 261.516C248.004 268.067 244.537 274.164 241.912 280.615C240.458 284.187 239.559 288.968 242.61 291.327C245.121 293.268 248.726 292.261 251.707 291.172C256.178 289.538 260.65 287.904 265.122 286.271C268.832 284.915 272.553 283.555 276.076 281.768C292.176 273.601 302.484 257.547 312.019 242.222C312.882 240.834 313.755 239.424 314.204 237.852C314.67 236.218 314.653 234.491 314.633 232.791C314.545 225.298 314.456 217.804 314.368 210.31C314.336 207.673 314.28 204.93 313.087 202.578C310.96 198.384 305.997 196.69 301.729 194.713C295.325 191.746 289.595 187.335 285.091 181.902C283.93 180.502 282.82 178.969 282.462 177.186C281.827 174.015 283.682 170.9 283.958 167.678C284.409 162.403 280.426 157.546 275.624 155.313C270.821 153.079 265.347 152.916 260.051 152.874C255.029 152.834 249.944 152.875 245.086 154.143C230.617 157.919 220.716 172.338 218.592 187.134C217.989 191.332 217.944 195.797 219.821 199.6C221.408 202.814 224.2 205.234 226.826 207.675Z" fill="url(#paint2_linear_13_398)"/>
<path d="M157.167 431.395C162.811 434.825 169.516 435.964 176.055 436.899C186.456 438.386 196.906 439.528 207.382 440.322C220.879 441.344 235.246 441.598 246.985 434.864C247.852 434.366 248.737 433.794 249.212 432.913C250.652 430.24 247.364 427.345 244.374 426.81C241.384 426.276 237.927 426.582 235.742 424.473C240.143 422.288 245.682 422.588 249.821 425.237C253.96 427.886 256.551 432.789 256.407 437.7C256.289 441.725 254.479 445.601 254.666 449.625C254.895 454.533 249.89 457.939 245.322 459.752C230.801 465.515 214.739 465.664 199.117 465.435C185.277 465.231 170.902 464.662 158.602 458.314C155.509 456.717 152.487 454.66 150.777 451.629C149.242 448.908 148.921 445.693 148.631 442.583C148.049 436.328 147.682 429.334 151.712 424.515C155.555 419.919 162.12 418.876 168.096 418.444C170.982 418.235 171.997 414.406 171.47 411.562C170.943 408.718 169.687 405.688 170.925 403.074C173.398 397.856 181.986 400.421 186.4 396.697C187.865 395.46 190.22 397.661 189.651 399.491C189.081 401.321 186.93 402.177 185.012 402.213C183.095 402.249 181.187 401.722 179.277 401.896C177.368 402.071 175.308 403.291 175.146 405.201C192.745 412.26 212.617 413.522 230.968 408.744C227.809 404.879 222.75 402.646 217.765 402.916C217.845 401.686 219.221 400.991 220.434 400.767C225.928 399.751 231.583 403.593 233.687 408.766C235.792 413.94 234.805 419.988 232.182 424.918C229.796 424.176 229.985 420.805 230.37 418.337C230.755 415.87 229.74 412.307 227.288 412.782C210.525 416.028 192.911 414.767 176.782 409.167C175.551 408.74 174.768 410.47 174.618 411.764C174.056 416.602 173.769 422.236 177.347 425.542C179.103 427.165 181.491 427.888 183.81 428.473C196.414 431.654 209.67 432.228 222.502 430.149C224.299 429.858 226.586 429.736 227.463 431.329C217.741 435.736 206.537 434.733 195.918 433.643C190.898 433.127 185.779 432.586 181.177 430.519C176.689 428.504 172.891 425.12 168.303 423.344C163.714 421.569 157.567 422.031 155.064 426.265C154.788 426.732 154.563 427.244 154.524 427.785C154.411 429.353 155.823 430.578 157.167 431.395ZM251.647 450.76C253.69 446.192 251.809 440.952 251.205 435.985C237.262 445.503 218.927 444.682 202.135 442.921C192.4 441.9 182.685 440.688 172.997 439.285C166.715 438.375 160.116 437.244 155.205 433.224C153.886 432.145 152.42 434.406 152.202 436.096C151.568 441.009 151.016 446.353 153.569 450.599C156.369 455.255 162.052 457.192 167.329 458.493C190.549 464.216 215.125 464.362 238.412 458.914C243.65 457.689 249.451 455.669 251.647 450.76Z" fill="url(#paint3_linear_13_398)"/>
<path d="M280.343 45.5719C283.088 44.974 285.897 46.0323 288.481 47.1329C337.934 68.1954 376.521 113.19 389.787 165.261C403.053 217.333 390.695 275.295 357.343 317.436C323.992 359.578 270.406 384.937 216.658 384.015C215.566 390.255 214.473 396.495 213.381 402.735C213.379 397.447 213.295 391.849 210.519 387.347C207.743 382.845 201.239 380.207 196.987 383.355C191.179 390.289 195.668 402.855 204.557 404.543C202.818 408.618 196.114 407.349 193.86 403.533C191.607 399.717 192.118 394.966 191.771 390.549C191.424 386.132 189.384 381.052 185.037 380.186C172.132 377.613 159.475 373.802 147.295 368.822C139.412 365.599 130.327 359.269 132.174 350.959C133.539 344.82 140.805 341.533 147.041 342.359C153.277 343.184 158.656 346.986 163.753 350.672C166.411 341.489 169.07 332.306 171.728 323.122C163.361 323.51 161.012 311.255 153.961 306.734C121.705 286.048 100.201 249.484 97.8068 211.25C95.4123 173.016 112.186 134.057 141.61 109.511C171.034 84.9654 212.381 75.4398 249.585 84.6357C253.999 79.2076 262.251 77.328 268.582 80.3084C274.502 77.2891 274.199 68.9139 273.456 62.3127C272.712 55.7115 273.85 46.9867 280.343 45.5719V45.5719ZM332.198 245.585C346.701 207.491 339.882 162.049 314.837 129.883C313.023 127.553 310.973 125.185 308.171 124.249C301.842 122.135 295.512 120.02 289.183 117.905C289.87 120.574 287.735 123.312 285.157 124.288C282.579 125.264 279.715 124.933 276.981 124.585C272.11 123.965 267.083 123.282 262.877 120.75C258.671 118.218 255.482 113.317 256.5 108.516C257.314 104.68 252.611 102.222 248.833 101.169C238.969 98.4201 229.104 95.6715 219.24 92.9229C217.09 92.3238 214.79 91.6275 213.416 89.8689C212.042 88.1103 212.312 84.9553 214.427 84.2402C197.896 84.6818 181.479 88.9261 166.807 96.5514C178.504 102.612 190.423 108.835 199.58 118.303C206.762 125.729 212.162 135.683 211.291 145.976C210.536 154.893 205.096 162.958 198.01 168.428C190.924 173.899 182.311 177.045 173.628 179.226C160.817 182.445 145.297 182.952 136.482 173.117C133.918 170.256 129.336 170.998 125.619 171.975C119.348 173.623 113.077 175.271 106.806 176.919C105.346 177.303 103.579 178.048 103.529 179.557C103.378 184.131 106.77 188.577 111.222 189.643C115.675 190.709 120.713 188.28 122.652 184.134C123.82 181.636 127.34 181.246 129.919 182.224C132.498 183.202 134.633 185.12 137.199 186.132C141.265 187.738 146.039 186.933 149.972 188.841C156.532 192.024 157.649 200.956 156.398 208.137C154.076 221.465 146.516 233.81 135.697 241.939C128.597 247.273 129.83 258.33 133.403 266.458C136.975 274.586 142.288 282.759 141.048 291.549C136.176 281.367 132.05 270.827 128.715 260.043C126.876 254.095 125.823 246.373 130.896 242.76C141.675 235.084 149.673 223.589 153.122 210.816C155.189 203.161 154.161 192.706 146.57 190.405C143.627 189.513 140.373 190.176 137.451 189.22C135.003 188.419 133.043 186.567 130.693 185.514C128.344 184.462 125.035 184.552 123.795 186.807C119.571 194.493 106.604 194.807 102.011 187.336C96.6782 225.401 111.102 265.694 139.384 291.736C167.666 317.777 209.022 328.846 246.537 320.414C284.053 311.982 316.688 284.283 331.096 248.647C327.093 246.863 324.825 242.441 324.24 238.099C323.654 233.756 324.435 229.365 324.868 225.005C325.739 216.236 325.193 207.329 323.256 198.733C322.736 196.421 321.714 193.73 319.393 193.251C312.425 191.813 305.813 188.682 300.285 184.204C296.086 180.803 292.562 174.061 296.648 170.525C298.551 168.877 295.85 166.163 294.866 163.847C292.788 158.955 299.15 154.938 304.234 153.387C310.196 151.569 316.158 149.751 322.12 147.933C322.763 147.737 323.445 147.539 324.099 147.698C325.999 148.162 325.866 151.229 324.267 152.356C322.668 153.482 320.534 153.3 318.578 153.253C310.799 153.069 302.987 155.914 297.151 161.058C299.747 163.928 300.415 168.386 298.775 171.89C296.8 176.109 299.603 181.228 303.479 183.814C307.355 186.4 312.084 187.282 316.434 188.952C320.784 190.622 325.168 193.59 326.221 198.127C328.355 207.32 328.819 216.897 327.585 226.253C326.654 233.314 325.78 242.491 332.198 245.585ZM175.947 353.602C173.51 350.904 174.112 346.626 175.631 343.324C177.15 340.022 179.445 336.998 180.088 333.421C180.731 329.844 178.792 325.38 175.166 325.102C172.512 333.847 169.857 342.593 167.203 351.338C215.723 367.721 272.187 358.19 312.635 326.79C353.083 295.389 376.298 243.064 372.428 192.017C368.559 140.971 337.722 92.7391 293.003 67.789C291.936 67.1939 290.742 66.5917 289.548 66.8507C288.015 67.1834 287.144 68.7631 286.47 70.1793C284.226 74.8991 281.981 79.6189 279.736 84.3387C285.024 87.4425 287.85 94.2221 286.33 100.161C316.592 119.333 337.665 152.363 342.292 187.877C346.919 223.391 335.012 260.715 310.672 286.995C286.332 313.276 250.02 328.015 214.241 326.136C205.856 325.696 196.824 324.535 189.599 328.811C181.245 333.755 178.244 344.173 175.947 353.602H175.947ZM290.183 51.2693C287.424 50.0394 284.422 48.8576 281.458 49.445C278.495 50.0324 275.863 53.1712 276.942 55.9918C328.895 77.1934 367.678 127.71 374.726 183.359C381.773 239.008 356.807 297.592 311.778 331.066C266.75 364.539 203.437 371.581 152.148 348.82C147.167 346.61 140.366 344.542 137.08 348.888C135.057 351.564 135.735 355.563 137.774 358.225C139.814 360.888 142.906 362.504 145.935 363.947C200.648 390.01 269.189 384.304 318.835 349.552C368.481 314.801 397.283 252.369 391.49 192.063C385.697 131.756 345.537 75.9428 290.183 51.2693ZM105.69 174.501C112.074 172.759 118.458 171.017 124.842 169.274C129.245 168.073 134.698 167.151 137.739 170.554C142.649 176.048 150.254 178.562 157.623 178.701C164.992 178.841 172.23 176.857 179.24 174.58C188.795 171.478 198.973 167.1 203.546 158.159C206.234 152.904 208.995 147.322 208.63 141.431C208.294 136.001 205.346 131.127 202.48 126.502C200.073 122.615 197.603 118.657 194.085 115.736C188.083 110.752 179.605 109.267 174.12 103.719C170.95 100.512 165.914 99.7302 161.516 100.728C157.117 101.726 153.229 104.248 149.6 106.925C128.792 122.271 113.109 144.441 105.57 169.166C105.03 170.936 104.58 173.021 105.69 174.501ZM286.901 116.813C288.939 113.885 293.54 114.905 296.575 116.78C299.611 118.655 302.881 121.192 306.337 120.307C287.459 101.167 262.17 88.4566 235.542 84.725C228.648 83.759 220.745 83.6984 215.789 88.5852C228.189 92.3028 240.589 96.0204 252.988 99.7381C254.62 100.227 256.342 100.773 257.459 102.058C259.423 104.317 258.721 107.75 259.267 110.693C260.054 114.934 263.618 118.236 267.602 119.894C271.586 121.553 275.985 121.848 280.292 122.123C281.789 122.218 283.458 122.259 284.589 121.274C285.863 120.163 285.936 118.2 286.901 116.813ZM283.136 98.0274C284.294 95.4946 283.251 92.3855 281.326 90.3714C279.402 88.3573 276.762 87.2108 274.176 86.1742C269.642 84.3566 264.937 82.6979 260.054 82.5666C258.829 82.5337 257.483 82.6465 256.604 83.4995C255.725 84.3525 255.806 86.1663 256.979 86.5207C266.119 89.2842 274.923 93.1572 283.136 98.0274ZM194.037 323.232C185.148 321.575 176.497 318.654 168.425 314.582C167.757 314.246 167.046 313.891 166.302 313.962C165.557 314.032 164.823 314.728 165.011 315.452C165.139 315.942 165.613 316.247 166.05 316.504C170.691 319.231 175.371 321.976 180.462 323.723C185.554 325.47 191.149 326.17 196.335 324.725C196.161 323.766 194.996 323.411 194.037 323.232ZM283.785 62.7165C283.087 61.6949 281.452 61.7689 280.484 62.5404C279.517 63.3118 279.051 64.5348 278.628 65.6972C276.859 70.5574 275.089 75.4175 273.32 80.2777C273.157 80.7242 272.992 81.1904 273.045 81.6626C273.198 83.0343 275.145 83.5313 276.327 82.8169C277.508 82.1025 278.069 80.7153 278.554 79.423C280.254 74.8901 281.954 70.3573 283.654 65.8244C284.034 64.8129 284.394 63.6087 283.785 62.7165V62.7165Z" fill="url(#paint4_linear_13_398)"/>
</g>
<defs>
<linearGradient id="paint0_linear_13_398" x1="168.369" y1="128.708" x2="168.369" y2="147.411" gradientUnits="userSpaceOnUse">
<stop stop-color="#1F7194"/>
<stop offset="1" stop-color="#2E90B4" stop-opacity="0.68"/>
</linearGradient>
<linearGradient id="paint1_linear_13_398" x1="299.348" y1="218.848" x2="299.348" y2="231.12" gradientUnits="userSpaceOnUse">
<stop stop-color="#1F7194"/>
<stop offset="1" stop-color="#2E90B4" stop-opacity="0.68"/>
</linearGradient>
<linearGradient id="paint2_linear_13_398" x1="266.464" y1="150.199" x2="266.464" y2="295.075" gradientUnits="userSpaceOnUse">
<stop stop-color="#1F7194"/>
<stop offset="1" stop-color="#2E90B4" stop-opacity="0.68"/>
</linearGradient>
<linearGradient id="paint3_linear_13_398" x1="202.344" y1="396.337" x2="202.344" y2="465.495" gradientUnits="userSpaceOnUse">
<stop stop-color="#1F7194"/>
<stop offset="1" stop-color="#2E90B4" stop-opacity="0.68"/>
</linearGradient>
<linearGradient id="paint4_linear_13_398" x1="246.301" y1="45.399" x2="246.301" y2="407.058" gradientUnits="userSpaceOnUse">
<stop stop-color="#1F7194"/>
<stop offset="1" stop-color="#2E90B4" stop-opacity="0.68"/>
</linearGradient>
<clipPath id="clip0_13_398">
<rect width="420.266" height="420.096" fill="white" transform="translate(36.1682 45.399)"/>
</clipPath>
</defs>
</svg>
