<svg width="450" height="350" viewBox="0 0 450 350" fill="none" xmlns="http://www.w3.org/2000/svg">
<path fill-rule="evenodd" clip-rule="evenodd" d="M382.521 49.8762C309.724 8.15612 252.964 130.619 211.737 146.036C128.65 177.106 -25.6759 204.129 3.75559 264.534C44.1672 347.474 184.777 355.749 285.329 347.474C416.117 336.71 525.648 131.902 382.521 49.8762Z" fill="white"/>
<path fill-rule="evenodd" clip-rule="evenodd" d="M371.965 183.555C372.715 184.215 372.97 185.25 373.158 186.24L374.299 192.455C374.457 193.319 375.183 193.728 375.463 193.236C375.759 192.715 376.549 192.931 377.078 193.213L383.689 196.726C381.44 198.338 378.787 199.383 376.041 199.737C374.687 199.911 374.468 201.763 374.612 203.118L375.004 206.806C375.126 207.955 373.316 208.346 372.412 207.625C371.508 206.904 371.165 205.697 370.452 204.786C369.301 203.316 367.267 202.767 365.406 202.938C363.545 203.108 361.802 203.887 360.099 204.656C359.001 205.151 357.793 203.839 357.879 202.639C357.954 201.58 358.633 200.692 359.324 199.865L359.6 199.538C360.377 198.617 361.153 197.526 361.021 196.33C360.912 195.334 360.2 194.532 359.486 193.815L359.068 193.397C358.406 192.721 357.777 191.969 357.661 191.045C357.528 189.988 358.494 188.772 359.508 189.1C363.415 190.361 368.12 187.902 369.308 183.977C369.617 182.957 371.165 182.85 371.965 183.555Z" fill="white"/>
<path fill-rule="evenodd" clip-rule="evenodd" d="M371.965 183.555C372.715 184.215 372.97 185.25 373.158 186.24L374.299 192.455C374.457 193.319 374.109 194.657 373.283 194.354C372.107 191.863 371.481 189.115 371.463 186.361C371.014 185.931 370.346 186.571 370.067 187.126L367.277 192.677C366.786 193.655 365.32 193.439 364.352 192.928L363.833 192.653C362.993 192.218 362.079 191.833 361.282 192.262C360.876 193.477 362.683 194.084 363.62 194.959C364.69 195.958 364.628 197.751 363.879 199.009C363.131 200.267 361.866 201.115 360.643 201.92C362.4 202.21 364.274 201.697 365.638 200.553C366.255 200.036 366.819 199.373 367.607 199.209C368.825 198.954 369.92 200.01 370.552 201.08C371.185 202.151 371.685 203.405 372.766 204.023C373.307 203.172 373.018 202.103 372.677 201.119L372.515 200.66C372.124 199.56 371.948 198.103 372.907 197.435C373.267 197.184 373.715 197.11 374.156 197.063L378.871 196.591L376.154 194.615C375.697 194.282 375.183 193.728 375.463 193.236C375.759 192.715 376.549 192.931 377.078 193.213L383.689 196.726C381.44 198.338 378.787 199.383 376.041 199.737C374.687 199.911 374.468 201.763 374.612 203.118L375.004 206.806C375.126 207.955 373.316 208.346 372.412 207.625C371.508 206.904 371.165 205.697 370.452 204.786C369.301 203.316 367.267 202.767 365.406 202.938C363.545 203.108 361.802 203.887 360.099 204.656C359.001 205.151 357.793 203.839 357.879 202.639C357.954 201.58 358.633 200.692 359.324 199.865L359.6 199.538C360.377 198.617 361.153 197.526 361.021 196.33C360.912 195.334 360.2 194.532 359.486 193.815L359.068 193.397C358.406 192.721 357.777 191.969 357.661 191.045C357.528 189.988 358.494 188.772 359.508 189.1C363.415 190.361 368.12 187.902 369.308 183.977C369.617 182.957 371.165 182.85 371.965 183.555Z" fill="#FFB61D"/>
<path fill-rule="evenodd" clip-rule="evenodd" d="M111.859 72.1074C109.03 59.5516 116.738 38.7098 130.508 30.3297C144.279 21.9497 161.893 21.3756 177.23 26.3521C176.741 11.5559 191.766 -1.14089 206.539 0.0815502C221.312 1.30399 233.569 14.55 235.554 29.221C237.101 40.6523 231.225 54.2685 219.862 56.3391C223.879 70.671 226.112 85.7504 223.907 100.469C221.703 115.188 214.689 129.566 202.853 138.608C199.584 142.998 202.053 149.621 206.355 153.006C210.657 156.392 216.225 157.582 221.373 159.451C242.944 167.28 258.13 188.533 261.67 211.18C265.21 233.827 258.14 257.313 245.362 276.353C236.609 289.394 224.703 300.976 209.807 305.991C188.898 313.031 165.973 306.177 145.67 297.548C137.93 294.259 130.049 290.52 124.586 284.134C118.729 277.287 107.66 280.985 99.677 285.172C104.985 287.372 110.293 289.571 115.6 291.77C116.741 292.243 117.978 292.804 118.507 293.919C119.62 296.264 116.878 298.522 114.556 299.689C112.062 300.944 109.567 302.199 107.072 303.453C91.7597 311.154 75.8121 319.022 58.6742 319.497C39.9373 320.017 22.2383 311.654 5.37547 303.48C3.50113 302.571 1.51431 301.56 0.495164 299.745C-0.523983 297.93 0.0456947 295.1 2.0599 294.568C20.9772 289.572 38.8873 280.803 54.428 268.928C53.2392 261.536 53.5194 253.911 55.2475 246.626C55.4975 245.572 55.857 244.417 56.7972 243.878C59.1088 242.552 61.1167 246.045 61.5251 248.676C62.5561 255.317 63.587 261.958 64.618 268.599C76.9975 267.232 89.0122 262.69 99.1961 255.529C91.2532 249.141 83.3103 242.753 75.3674 236.364C70.7844 232.678 66.3607 230.473 63.8855 223.255C62.2355 218.444 63.5672 213.501 67.8809 208.427C63.0654 184.46 60.9584 166.394 61.5599 154.227C61.7204 150.98 62.0843 147.474 64.2731 145.067C68.1365 140.818 75.7227 142.651 79.2491 147.182C82.7756 151.714 83.3658 157.796 83.8218 163.517C97.2491 161.878 110.676 160.24 124.104 158.602C129.016 158.002 134.104 157.417 138.832 158.877C144.764 160.709 149.528 165.898 150.843 171.958C156.509 170.429 162.68 168.545 165.88 163.631C169.08 158.717 166.37 150.171 160.506 150.424C142.164 151.217 124.225 137.624 120.05 119.768C118.989 115.227 118.576 110.181 115.384 106.777C110.326 101.384 106.471 94.4315 106.496 87.042C106.521 79.6525 109.621 78.7708 111.859 72.1074ZM2.36994 299.519C2.78291 300.135 3.50371 300.457 4.18639 300.749C11.1908 303.743 18.1951 306.737 25.1995 309.73C28.3866 311.093 31.584 312.458 34.917 313.411C44.2122 316.067 54.2283 315.419 63.4702 318.255C64.5912 318.599 65.7945 318.243 66.9107 317.884C74.9712 315.291 82.937 312.405 90.7867 309.232C98.9991 305.912 107.137 302.25 114.429 297.224C115.092 296.767 115.781 296.258 116.083 295.512C116.386 294.766 116.107 293.729 115.332 293.509C110.411 292.113 105.561 290.467 100.808 288.578C99.2803 287.971 97.5601 287.106 97.2359 285.495C93.0485 285.663 89.3868 288.301 86.2982 291.13C83.2096 293.958 80.3081 297.153 76.5024 298.905C72.6966 300.657 67.5887 300.506 64.9522 297.253C64.6706 296.905 64.3879 296.506 63.9549 296.393C63.5219 296.279 62.9657 296.71 63.1675 297.109C63.6902 298.143 62.5675 299.45 61.4104 299.378C60.2533 299.306 59.3486 298.253 59.0638 297.131C58.779 296.009 57.233 298.013 54.9923 298.347C52.7517 298.681 50.3746 297.245 49.6303 295.108C49.017 293.347 46.6121 293.316 44.7745 292.986C40.5962 292.237 37.4232 287.864 38.0109 283.665C26.0028 287.665 14.2123 292.316 2.70897 297.592C2.03416 297.902 1.95696 298.902 2.36994 299.519Z" fill="white"/>
<path d="M170.953 126.771C174.479 126.771 177.337 123.916 177.337 120.395C177.337 116.873 174.479 114.019 170.953 114.019C167.427 114.019 164.568 116.873 164.568 120.395C164.568 123.916 167.427 126.771 170.953 126.771Z" fill="#FFB61D"/>
<path d="M126.638 121.52C128.504 121.52 130.017 120.008 130.017 118.144C130.017 116.28 128.504 114.769 126.638 114.769C124.771 114.769 123.258 116.28 123.258 118.144C123.258 120.008 124.771 121.52 126.638 121.52Z" fill="#FFB61D"/>
<path fill-rule="evenodd" clip-rule="evenodd" d="M201.441 145.985C202.026 149.015 203.764 151.951 206.078 153.772C210.38 157.158 220.05 160.644 225.198 162.513C225.666 162.683 223.025 164.172 219.615 167.467C210.384 176.385 190.2 192.356 170.481 184.33C168.176 183.392 166.249 182.312 164.679 181.167C163.233 180.113 176.509 181.632 188.92 179.282C201.399 176.919 213.009 170.677 209.901 165.728C206.98 161.076 198.765 153.197 198.124 148.563C197.271 142.389 200.938 143.38 201.441 145.985Z" fill="#E7EAEE"/>
<path fill-rule="evenodd" clip-rule="evenodd" d="M2.11646 297.765C2.11646 295.292 9.92565 293.29 23.2755 288.275C32.4574 284.826 50.3543 274.845 59.1598 274.38C65.019 274.071 88.4345 282.632 103.716 288.781C111.4 291.872 117.327 293.809 117.327 294.801C117.327 296.793 101.012 306.411 84.3375 312.732C76.1986 315.818 68.5626 318.581 61.5597 318.394C40.2097 317.826 2.11646 304.027 2.11646 297.765Z" fill="white"/>
<path fill-rule="evenodd" clip-rule="evenodd" d="M303.734 92.335C273.119 105.394 247.542 127.708 223.174 150.4L221.683 151.79C220.262 153.117 218.104 154.504 216.57 153.309L221.305 149.004C246.081 126.523 271.697 104.231 302.352 90.9875C325.921 80.805 325.67 82.9783 303.734 92.335ZM171.86 309.858L186.221 325.481C186.925 326.247 187.658 327.068 187.855 328.089C188.052 329.11 187.46 330.356 186.425 330.464L156.855 333.552C151.943 334.065 146.934 330.664 145.52 325.939C144.106 321.213 146.37 315.678 150.647 313.214C154.925 310.75 160.792 311.527 164.343 314.954C165.223 315.803 166.768 315.082 167.392 314.032C168.016 312.981 168.151 311.693 168.797 310.655C169.442 309.617 171.032 308.958 171.86 309.858ZM148.014 318.876C146.18 322.351 147.34 327.059 150.478 329.427C152.016 330.587 153.904 331.21 155.807 331.516C158.495 331.949 161.613 331.621 163.341 329.52C163.972 328.753 164.359 327.813 164.623 326.856C165.501 323.671 165.054 320.142 163.41 317.276C162.963 316.495 162.274 315.681 161.374 315.719C160.947 315.738 160.55 315.954 160.124 315.998C159.416 316.07 158.76 315.667 158.114 315.366C154.549 313.708 149.847 315.4 148.014 318.876ZM170.584 312.992C170.019 315.343 168.851 317.547 167.221 319.335C166.762 319.839 166.875 320.617 166.968 321.292C167.421 324.577 166.672 328.014 164.893 330.814C167.808 330.125 170.789 329.713 173.782 329.586C177.885 329.411 182.166 329.74 185.927 328.092C183.918 327.218 182.212 325.665 181.157 323.747C180.537 322.62 179.679 321.643 178.827 320.677L172.288 313.256C171.815 312.72 170.75 312.297 170.584 312.992ZM96.3213 312.851C97.259 315.775 100.786 316.778 103.841 317.304L124.232 320.705C128.947 321.491 133.786 322.276 138.475 321.348C139.36 321.172 139.828 322.575 139.244 323.262C138.66 323.949 137.645 324.03 136.743 324.033C132.658 324.047 128.597 323.504 124.554 322.898L120.247 322.242C112.626 321.072 105.007 319.827 97.5472 317.888C96.2702 317.556 94.9474 317.177 93.9699 316.291C92.9924 315.406 92.484 313.86 93.1719 312.736C93.8597 311.611 95.9189 311.596 96.3213 312.851ZM206.539 0.0815501C221.312 1.30399 233.569 14.55 235.554 29.221C237.101 40.6522 231.225 54.2685 219.862 56.339C223.879 70.671 226.112 85.7504 223.907 100.469C221.703 115.188 214.689 129.566 202.853 138.608C199.585 142.998 202.053 149.621 206.355 153.006C210.657 156.392 216.225 157.582 221.373 159.451C242.944 167.28 258.131 188.533 261.671 211.18C265.211 233.827 258.14 257.313 245.362 276.353C236.609 289.394 224.703 300.976 209.807 305.991C189.107 312.96 166.431 306.312 146.28 297.806L145.67 297.548C138.092 294.327 130.377 290.676 124.93 284.529L124.586 284.134C118.729 277.287 107.66 280.985 99.677 285.172L115.6 291.77C116.741 292.243 117.978 292.804 118.507 293.919C119.62 296.264 116.878 298.522 114.556 299.689L105.207 304.39C90.4647 311.78 75.1173 319.041 58.6742 319.497C40.1552 320.011 22.6501 311.847 5.96405 303.765L4.90516 303.25C3.17671 302.397 1.42938 301.409 0.495164 299.745C-0.523983 297.93 0.0456946 295.1 2.0599 294.568C20.9772 289.572 38.8873 280.803 54.428 268.928C53.2392 261.536 53.5194 253.911 55.2475 246.626L55.3356 246.272C55.5846 245.323 55.9615 244.357 56.7972 243.878C59.1088 242.552 61.1167 246.045 61.5251 248.676L64.618 268.599C76.9975 267.232 89.0123 262.69 99.1961 255.529L74.727 235.848C70.3459 232.308 65.9104 228.481 63.8856 223.255C61.7619 217.775 63.4704 210.346 68.9582 208.225C69.3912 187.464 68.2955 166.671 65.6827 146.071C62.0699 166.646 64.9734 187.741 67.8809 208.427C62.8955 191.192 60.7367 173.146 61.5137 155.223L61.5599 154.227C61.7204 150.98 62.0844 147.474 64.2731 145.067C68.1365 140.818 75.7227 142.651 79.2491 147.182C82.7756 151.714 83.3658 157.796 83.8218 163.517L125.027 158.49C129.651 157.937 134.399 157.508 138.832 158.877C144.764 160.709 149.528 165.898 150.843 171.958L151.809 171.694C157.198 170.206 162.861 168.267 165.88 163.631C169.046 158.769 166.427 150.352 160.692 150.419L160.506 150.424C142.164 151.217 124.225 137.624 120.05 119.768C118.989 115.227 118.576 110.181 115.384 106.777C110.326 101.384 106.471 94.4315 106.496 87.042C106.521 79.6525 111.239 72.0319 118.423 70.2654C125.608 68.4989 134.111 74.4855 133.491 81.849C136.977 81.4946 140.542 81.9477 143.828 83.1626C141.954 78.1172 146.811 72.5482 152.149 71.8159C157.488 71.0836 162.689 73.7464 167.128 76.7964C171.568 79.8464 175.809 83.4372 180.97 84.9831L181.208 84.4332C182.275 81.9461 183.257 79.2898 182.72 76.6606C182.142 73.8366 178.957 71.3943 176.377 72.6873C174.567 67.5062 171.685 62.701 167.967 58.6607L157.633 63.5263C156.302 61.5349 155.486 59.2026 155.287 56.8164C148.464 60.7106 141.058 63.5846 133.392 65.313L134.177 59.4679L111.269 71.3509C107.886 55.6044 116.738 38.7097 130.508 30.3297C144.279 21.9497 161.893 21.3756 177.23 26.3521C176.741 11.5559 191.766 -1.14089 206.539 0.0815501ZM319.237 256.729C306.039 259.91 293.228 264.685 281.172 270.918L280.3 271.373C273.619 274.888 267.062 279.1 262.874 285.35C265.702 284.86 268.721 285.596 271.005 287.332C272.447 288.428 273.653 290.073 273.567 291.881C273.522 292.818 273.132 293.713 272.607 294.491C270.552 297.53 266.203 298.764 262.855 297.258C259.507 295.751 257.552 291.679 258.472 288.129C244.269 292.972 232.06 303.391 225.041 316.636L224.806 317.084C224.46 317.75 224.038 318.497 223.304 318.662C222.296 318.89 221.398 317.766 221.444 316.734C221.491 315.703 222.152 314.814 222.792 314.003C231.068 303.508 240.74 293.517 253.118 288.452L254.05 288.077C256.97 286.921 260.027 285.785 261.912 283.318C266.486 277.335 273.07 273.227 279.756 269.751C285.739 266.639 291.929 263.923 298.271 261.626C304.635 259.321 311.142 257.44 317.663 255.618L339.753 249.476C333.778 253.669 326.336 255.019 319.237 256.729ZM38.0109 283.665C26.0028 287.665 14.2123 292.316 2.70897 297.592C2.03416 297.902 1.95696 298.902 2.36994 299.519C2.78291 300.135 3.50371 300.457 4.18639 300.749L25.1995 309.73C28.3866 311.093 31.5841 312.458 34.917 313.411C44.2122 316.067 54.2283 315.419 63.4702 318.255C64.5912 318.598 65.7945 318.243 66.9107 317.884C74.9712 315.291 82.937 312.405 90.7867 309.232C98.9991 305.912 107.137 302.25 114.429 297.224C115.092 296.767 115.781 296.258 116.083 295.512C116.386 294.766 116.107 293.729 115.332 293.509C110.411 292.113 105.561 290.467 100.808 288.578L100.479 288.444C99.0417 287.844 97.5369 286.991 97.2359 285.495C93.0486 285.663 89.3868 288.301 86.2982 291.13C83.2096 293.958 80.3082 297.153 76.5024 298.905C72.6966 300.657 67.5887 300.506 64.9522 297.253L64.7819 297.041C64.5515 296.757 64.3013 296.483 63.9549 296.392C63.5219 296.279 62.9657 296.71 63.1675 297.109C63.6902 298.143 62.5675 299.45 61.4104 299.378C60.2533 299.306 59.3486 298.253 59.0638 297.131C58.8807 296.409 58.8968 295.663 58.9844 294.92L59.0064 294.737C58.4919 296.556 56.8792 298.066 54.9924 298.347C52.7517 298.681 50.3746 297.245 49.6304 295.108C49.017 293.347 46.6121 293.316 44.7745 292.986C40.5962 292.237 37.4233 287.864 38.0109 283.665ZM66.3889 213.583C63.9137 217.98 66.2128 223.545 69.2616 227.566C78.8223 240.178 94.8358 246.231 105.762 257.683C108.507 260.561 110.9 263.749 113.263 266.95L120.688 277.021C122.053 278.872 123.422 280.729 125.015 282.388C129.167 286.716 134.635 289.508 140.043 292.107C151.016 297.38 162.304 302.225 174.217 304.742C186.131 307.26 198.789 307.345 210.251 303.241C220.98 299.399 230.224 292.031 237.407 283.193C244.418 274.565 249.564 264.565 253.689 254.241L253.989 253.485C254.583 251.979 255.166 250.404 255.043 248.79C254.913 247.084 254.002 245.533 252.94 244.19C248.889 239.072 242.118 236.177 235.635 236.977C229.253 237.765 223.409 242.187 221.071 248.164L220.962 248.449C215.882 262.204 203.23 272.549 189.018 276.22C174.805 279.891 159.347 277.261 146.374 270.398C133.402 263.536 122.816 252.673 114.924 240.312L114.493 239.629C113.067 237.344 111.771 234.939 111.269 232.302C110.717 229.402 111.278 226.14 113.375 224.059C114.761 222.684 116.732 221.878 117.74 220.207C118.748 218.537 117.565 215.586 115.705 216.183L114.465 216.575C105.921 219.23 96.0075 221.29 89.1332 215.765L88.4727 215.237C85.2654 212.692 81.8379 210.262 77.8532 209.387C73.5938 208.451 68.5262 209.786 66.3889 213.583ZM100.449 258.157C90.0854 264.697 78.3892 269.121 66.2875 271.079C64.6898 271.338 64.2604 273.406 64.2353 275.023C64.1554 280.159 64.4045 285.301 64.9805 290.406C66.2913 289.79 66.8275 288.25 67.7212 287.111C68.6149 285.972 70.6544 285.349 71.3452 286.621C71.8278 287.509 71.1837 288.622 70.3613 289.211C69.539 289.8 68.5277 290.119 67.7943 290.816C65.9698 292.548 66.9235 295.957 69.1463 297.138C71.3692 298.319 74.181 297.702 76.3121 296.363C78.4433 295.024 80.0898 293.061 81.8968 291.309C85.7616 287.564 90.4888 284.712 95.6063 283.038C102.103 280.913 109.337 280.597 115.053 276.851C115.438 276.599 115.836 276.303 115.982 275.866C116.18 275.271 115.844 274.652 115.488 274.121L108.65 264.205C107.56 262.625 106.307 260.928 104.44 260.476C103.587 260.269 102.677 260.349 101.84 260.086C101.002 259.822 100.213 259.002 100.449 258.157ZM52.7054 272.563C50.0391 273.806 48.4612 276.729 48.1101 279.647C47.7589 282.565 48.4485 285.502 49.2675 288.325C49.7703 290.057 50.3278 291.785 51.1593 293.386C51.6895 294.407 52.3916 295.426 53.4541 295.87C54.5166 296.314 55.9911 295.914 56.3364 294.817C56.4787 294.365 56.415 293.876 56.3326 293.41C56.0232 291.656 55.468 289.946 54.6889 288.344L54.3617 287.695C53.893 286.758 53.4516 285.654 54.0542 284.836C54.6297 284.056 56.0439 283.733 55.9088 282.773L54.5883 273.399C54.5497 273.125 54.5044 272.836 54.3263 272.624C53.9512 272.178 53.2336 272.317 52.7054 272.563ZM264.092 287.022C263.212 287.018 262.286 287.139 261.579 287.663C261.165 287.97 260.853 288.399 260.633 288.864C259.704 290.831 260.561 293.36 262.321 294.641C264.082 295.922 266.521 296.042 268.559 295.275C270.118 294.688 271.617 293.358 271.565 291.696C271.524 290.384 270.527 289.289 269.427 288.57C267.856 287.543 265.97 287.03 264.092 287.022ZM57.708 245.998C57.4827 246.166 57.3712 246.442 57.2761 246.706C55.8896 250.548 55.7199 254.712 55.7581 258.796C55.854 269.034 57.1711 279.261 59.6727 289.191L59.7971 289.674C60.3084 291.613 61.0075 293.601 62.5911 294.801C62.8856 279.065 61.8634 263.305 59.5384 247.739C59.3875 246.729 58.5289 245.389 57.708 245.998ZM45.2224 279.821C44.8914 279.914 44.6789 280.229 44.5137 280.53C43.1616 282.993 43.0703 286.107 44.2757 288.645C44.8161 289.783 45.7428 290.89 46.9963 291.029C47.5074 290.394 47.2738 289.478 46.9875 288.7L46.7402 288.041C45.8201 285.55 45.0649 282.854 45.8759 280.351C45.9817 280.024 45.5534 279.728 45.2224 279.821ZM40.712 283.234C39.7638 285.339 40.1862 287.988 41.7423 289.695C42.3846 289.039 42.1021 287.965 41.8827 287.074C41.5395 285.68 41.462 284.221 41.6556 282.799C41.4164 282.448 40.8862 282.847 40.712 283.234ZM60.6967 208.202C62.1339 209.439 63.0478 212.107 61.3409 212.933C60.2473 213.463 59.0082 212.688 57.9755 212.049C52.6097 208.724 45.7489 208.479 39.6655 210.17C33.5821 211.862 28.1435 215.307 23.0392 219.02C17.956 222.717 13.0548 226.775 9.23259 231.762C5.41042 236.749 2.70691 242.758 2.48506 249.035C2.21922 256.555 5.47265 263.745 9.23471 270.266C11.6325 274.421 14.3363 278.519 18.0584 281.536L18.8236 282.14C19.8795 282.987 20.9636 284.037 20.6944 285.31C17.046 285.145 14.398 281.886 12.3889 278.84C9.53188 274.509 6.92761 270.012 4.59366 265.379C2.65296 261.526 0.879063 257.512 0.289467 253.24C-0.819396 245.206 2.44688 237.036 7.5237 230.706C12.6005 224.375 19.357 219.625 26.1906 215.243C31.3813 211.914 36.7235 208.721 42.5503 206.699C48.5595 204.613 55.8766 204.056 60.6967 208.202ZM214.91 172.815C206.269 180.87 194.783 185.818 182.986 186.568C177.773 186.899 172.389 186.401 167.672 184.16C162.954 181.918 158.981 177.739 157.884 172.637L157.493 172.758C154.078 173.837 150.169 175.789 150.203 179.304C150.349 194.208 150.002 209.117 149.162 223.999C149.001 226.855 147.912 230.603 145.049 230.519C134.879 230.221 124.642 232.566 115.618 237.262C125.775 253.169 140.218 267.077 158.185 272.903C176.152 278.729 197.821 275.088 210.412 261.024C214.447 256.515 217.418 251.186 220.278 245.846L220.937 244.614C221.545 243.475 222.164 242.122 221.623 240.949C221.278 240.201 222.022 239.423 222.706 238.961C232.753 232.17 247.711 234.013 255.805 243.038C255.164 241.786 255.747 240.059 257.017 239.45C258.026 241.07 258.24 243.16 257.579 244.95C258.017 245.568 258.819 244.574 258.888 243.82C259.968 232.088 259.883 220.249 258.636 208.534C258.186 204.309 257.575 200.059 256.062 196.088C254.735 192.607 252.74 189.416 250.555 186.396C245.526 179.451 239.413 173.289 232.505 168.204L232.003 167.84C230.907 167.057 229.755 166.335 228.46 165.983C223.337 164.59 218.792 169.197 214.91 172.815ZM145.106 166.066C139.393 167.986 133.208 167.616 127.195 168.031C118.722 168.616 110.364 170.817 102.703 174.48C99.4034 176.057 96.2116 177.911 92.7224 179.009C85.3119 181.339 76.8172 179.9 70.5908 175.259C69.2486 185.493 69.6445 195.952 71.7566 206.055C71.8923 206.704 72.3201 207.534 72.9547 207.34C77.1657 206.048 81.6949 207.875 85.439 210.193C89.1832 212.511 92.702 215.401 96.9548 216.548C101.944 217.894 107.231 216.65 112.169 215.087L112.538 214.969C115.07 214.158 118.344 213.481 119.967 215.584C121.336 217.357 120.471 220.006 119.022 221.715C117.572 223.423 115.607 224.693 114.424 226.596C112.972 228.932 112.965 232.088 114.406 234.431C123.836 230.653 133.931 228.534 144.086 228.2C146.123 228.133 146.837 225.501 146.962 223.47C148.059 205.671 148.395 187.826 147.971 169.998C147.926 168.098 146.909 165.46 145.106 166.066ZM297.794 214.195L298.197 214.397C300.698 215.667 303.36 217.358 303.733 220.093C303.855 220.994 303.701 221.909 303.486 222.793C303.19 224.016 302.738 225.271 301.786 226.095C300.776 226.969 299.358 227.217 298.023 227.165C295.394 227.063 292.763 225.84 291.241 223.698C289.718 221.555 289.473 218.491 290.894 216.28C292.314 214.068 295.437 213.029 297.794 214.195ZM293.895 217.255C292.337 217.904 291.775 220.009 292.426 221.565C293.076 223.121 294.62 224.145 296.225 224.67C297.866 225.206 299.98 225.163 300.958 223.741C301.284 223.268 301.438 222.698 301.528 222.131C301.724 220.896 301.605 219.53 300.808 218.565C299.822 217.371 298.139 217.131 296.566 217.042L296.176 217.023C295.406 216.988 294.606 216.959 293.895 217.255ZM97.1848 185.085C97.3819 185.832 97.2304 186.62 97.0958 187.381C96.1473 192.739 96.0787 198.251 96.8916 203.631L97.0418 204.583C97.1408 205.257 97.1813 205.968 96.7939 206.51C96.3468 207.135 95.0941 207.072 95.0314 206.306C94.4979 199.788 94.156 193.254 94.0064 186.715C93.9778 185.466 94.3042 183.805 95.5514 183.709C96.3226 183.65 96.9878 184.338 97.1848 185.085ZM53.2924 172.022C54.2148 172.299 55.1008 172.93 55.3681 173.854C55.6355 174.778 55.027 175.946 54.0657 176.007C53.1698 176.063 52.486 175.248 51.6628 174.891C50.1848 174.249 48.5267 175.145 47.168 176.011L46.4763 176.457C45.1719 177.315 43.9083 178.277 43.192 179.645C42.4592 181.045 42.3979 182.69 42.4205 184.269C42.4363 185.366 42.4878 186.48 42.8276 187.524C43.5649 189.789 45.6687 191.486 48.0023 191.977C50.3359 192.468 52.8317 191.832 54.8058 190.495L55.1923 190.233C55.5408 190.004 55.9062 189.804 56.3162 189.784C56.8801 189.757 57.4972 190.288 57.3056 190.818C57.2481 190.977 57.1301 191.106 57.012 191.227C53.7854 194.537 48.2136 195.246 44.2592 192.849C43.5537 192.421 42.8961 191.905 42.363 191.276C40.7606 189.385 40.4616 186.735 40.4175 184.259C40.3937 182.919 40.4269 181.558 40.8083 180.273C41.6325 177.496 43.9616 175.433 46.3824 173.838C48.4378 172.484 50.9343 171.313 53.2924 172.022ZM34.6241 166.324L42.6683 175.865C42.2258 176.343 41.4502 176.374 40.8523 176.115C40.3209 175.884 39.897 175.471 39.4976 175.047L34.7778 169.978C34.1343 175.123 32.5755 180.153 30.196 184.762C29.9644 185.21 30.6205 185.589 31.1232 185.641C32.3508 185.766 33.5923 185.626 34.8028 185.387L35.4267 185.261C36.4043 185.067 37.4068 184.915 38.3181 185.276C39.4247 185.713 40.1076 187.322 39.2202 188.114C38.6732 188.602 37.8445 188.542 37.1164 188.452L29.2821 187.484L29.0413 187.45C28.2679 187.323 27.4178 187.021 27.3045 186.276C27.2361 185.827 27.4857 185.399 27.7193 185.009C30.5078 180.362 32.3655 175.16 33.1542 169.799L33.273 168.949C33.4263 167.905 33.6976 166.773 34.6241 166.324ZM308.692 181.314C309.662 182 310.578 183.346 309.826 184.266C309.355 184.842 308.448 184.856 307.772 184.546C307.095 184.237 306.57 183.682 305.986 183.221C303.592 181.331 299.997 181.132 297.409 182.746C297.04 182.975 296.674 183.261 296.524 183.668C296.375 184.075 296.54 184.622 296.957 184.745C300.26 183.347 304.199 183.543 307.348 185.261C307.803 185.509 308.281 185.84 308.393 186.346C308.505 186.851 307.961 187.458 307.509 187.205C305.454 186.056 303.001 185.633 300.68 186.028C299.598 186.212 298.539 186.567 297.442 186.602C296.345 186.637 295.145 186.271 294.562 185.342C294.025 184.484 294.153 183.327 294.677 182.461C295.201 181.596 296.06 180.982 296.958 180.515C300.616 178.614 305.326 178.935 308.692 181.314ZM199.095 134.931C191.251 141.516 182.034 146.461 172.207 149.361L171.551 149.551C170.275 149.915 168.669 150.722 168.938 152.019L169.103 152.824C169.593 155.245 170.009 157.711 169.659 160.147C169.282 162.774 167.832 165.404 165.432 166.508L165.211 166.604C160.938 168.361 160.337 174.736 163.14 178.406C165.942 182.076 170.802 183.497 175.393 184.028C188.866 185.584 202.926 181.072 212.971 171.97C216.614 168.668 219.874 164.716 224.384 162.755L213.104 158.632C210.062 157.519 206.979 156.387 204.33 154.522C201.682 152.658 199.473 149.944 198.932 146.754C198.268 142.845 200.145 138.754 199.095 134.931ZM68.9819 145.498C68.6988 145.623 68.4098 145.79 68.2736 146.068C68.1373 146.346 68.1833 146.675 68.2314 146.981L70.8158 163.25C71.5773 168.045 72.6472 173.358 76.6066 176.174C80.9437 179.258 86.8996 178.05 91.9501 176.289L92.2198 176.194C101.621 172.859 110.669 168.217 120.522 166.655C127.596 165.534 135.015 166.014 141.704 163.456C139.258 159.768 133.957 159.787 129.522 160.271L93.295 164.383C90.4884 164.702 87.5406 165.073 85.2614 166.74C84.2641 167.469 83.3198 168.47 82.0849 168.521C80.8835 168.571 79.8391 166.823 80.7808 166.181L80.8639 166.13C81.8965 165.562 81.827 164.082 81.6157 162.924L80.52 156.924C79.9659 153.948 79.2894 150.919 77.5065 148.489C75.581 145.865 71.9588 144.177 68.9819 145.498ZM319.083 169.814C319.956 170.83 319.993 172.389 319.411 173.595C318.829 174.801 317.726 175.688 316.533 176.299C315.094 177.037 313.51 177.421 311.921 177.75L311.127 177.911C310.816 177.973 310.488 178.035 310.187 177.935C309.937 177.851 309.734 177.664 309.57 177.458C308.751 176.432 308.78 174.918 309.334 173.728C309.888 172.539 310.88 171.614 311.899 170.786C312.941 169.94 314.075 169.143 315.381 168.833C316.688 168.524 318.208 168.797 319.083 169.814ZM314.799 171.6L314.381 171.88C313.756 172.308 313.153 172.775 312.733 173.399C312.219 174.162 312.041 175.225 312.548 175.992L315.908 174.125C316.455 173.821 317.022 173.499 317.377 172.984C317.733 172.469 317.803 171.7 317.364 171.254C316.705 170.584 315.582 171.08 314.799 171.6ZM261.197 134.872C261.432 134.967 261.59 135.179 261.727 135.396L266.65 143.426C267.53 144.861 269.532 145.021 271.212 144.903C274.433 144.676 277.624 144.02 280.672 142.956C281.183 142.778 281.668 143.428 281.558 143.957C281.448 144.487 280.992 144.864 280.565 145.197L273.171 150.952C272.263 150.888 272.521 149.404 273.257 148.869L273.475 148.718C274.185 148.24 275.045 147.767 275.001 146.946L270.728 148.279C269.912 148.534 269.005 148.784 268.229 148.426C267.713 148.188 267.352 147.722 267.025 147.252L261.596 139.339L261.503 146.268C261.495 146.836 261.471 147.453 261.11 147.892C260.853 148.204 260.469 148.371 260.087 148.512L252.597 151.196C254.597 153.194 258.341 151.092 260.735 152.597C262.375 153.629 262.655 155.927 262.301 157.83C261.947 159.733 261.136 161.584 261.241 163.517C262.608 162.526 263.612 161.047 264.027 159.413C264.194 158.754 264.277 158.053 264.644 157.48C265.656 155.902 268.073 156.223 269.748 157.067C271.423 157.911 273.161 159.126 274.994 158.725L272.335 154.479C272.092 154.092 271.841 153.672 271.862 153.216C271.884 152.759 272.318 152.298 272.756 152.431C272.947 152.489 273.09 152.64 273.217 152.799L279.149 160.478C277.066 161.85 274.317 160.986 271.911 160.324L271.555 160.231C269.208 159.651 266.344 159.593 265.048 161.579C264.135 162.979 263.063 164.276 261.859 165.436C261.353 165.925 260.774 166.413 260.074 166.493C259.374 166.572 258.569 166.042 258.631 165.341L259.321 157.576C259.366 157.073 259.4 156.526 259.119 156.106C258.824 155.664 258.267 155.492 257.754 155.35L251.273 153.563C249.864 153.174 249.854 150.984 250.911 149.976C251.968 148.967 253.524 148.756 254.933 148.366C256.341 147.976 257.864 147.147 258.119 145.71L259.763 136.406C259.904 135.611 260.448 134.569 261.197 134.872ZM86.8421 3.7054L85.6453 4.67669C77.6711 11.1666 69.8132 17.9703 63.9649 26.4067C57.8241 35.2648 54.0542 46.2492 55.8824 56.8673C58.5465 72.3406 72.405 84.6633 72.9975 100.352C73.0762 102.437 75.2012 103.734 76.979 104.828C83.9952 109.146 89.1944 116 92.6252 123.483C95.9488 130.733 97.7232 138.589 99.0135 146.462L99.1368 147.224C99.329 148.425 99.4694 149.791 98.6938 150.728C97.9183 151.665 95.9244 151.337 96.0018 150.124C96.9118 135.859 91.7207 121.306 81.9848 110.829C79.4556 108.107 76.5177 105.584 72.9561 104.518C72.7292 110.013 70.8768 115.612 66.9555 119.473C63.0342 123.333 56.8481 125.097 51.7716 122.967C46.6952 120.836 43.5895 114.403 45.8742 109.4C47.7881 105.208 52.5412 103.091 57.0667 102.198C61.507 101.323 66.1099 101.277 70.5668 102.065C71.1665 102.171 71.4278 101.333 71.4157 100.725C71.0935 84.4174 55.9994 71.6497 54.018 55.4591C52.9352 46.6109 55.9581 37.7039 60.3451 29.9409C66.1062 19.7462 74.3019 10.9345 84.058 4.44579L84.3134 4.28029C85.0948 3.78903 86.0058 3.37003 86.8421 3.7054ZM136.541 86.7649C134.357 88.168 134.413 91.2818 134.232 93.8691C133.984 97.4182 132.762 100.971 130.379 103.615C127.996 106.26 124.376 107.884 120.842 107.44C119.927 107.325 119.649 108.647 119.769 109.559C121.824 125.2 131.324 140.556 146.091 146.157C155.119 149.581 165.316 149.126 174.52 146.207C183.505 143.359 191.637 138.292 199.069 132.492L199.611 132.066C200.689 131.216 201.772 130.33 202.521 129.181C203.281 128.015 203.655 126.636 203.837 125.257C204.812 117.869 199.868 110.138 192.747 107.915C191.909 107.653 192.103 106.295 192.838 105.816C193.573 105.337 194.52 105.369 195.36 105.113C197.635 104.418 198.682 101.831 199.201 99.5121C199.915 96.3263 200.115 92.6933 198.138 90.0935C195.467 86.5801 190.272 86.5846 185.867 86.9213L178.72 87.4677C176.254 87.6563 173.078 88.5245 172.963 90.9925C172.713 96.308 170.369 101.603 166.227 104.95C162.084 108.297 156.119 109.454 151.201 107.405C146.362 105.389 142.943 100.128 143.502 94.933L143.532 94.6817C143.824 92.4844 143.663 90.0984 142.374 88.2939C141.085 86.4895 138.407 85.5657 136.541 86.7649ZM195.572 3.70207C192.385 4.60688 189.323 6.06625 186.807 8.21925C183.291 11.2281 180.954 15.5761 180.385 20.1654C180.183 21.7915 180.507 23.8886 182.089 24.3255C185.951 25.3926 189.408 27.8673 191.66 31.1782C188.008 29.008 184.005 27.4289 179.853 26.521L197.4 36.4366C198.417 37.0113 199.473 37.6217 200.112 38.5985C200.752 39.5753 200.819 41.0331 199.94 41.8024L198.714 40.8491C195.639 38.473 192.497 36.1697 189.056 34.3715C186.44 33.0041 183.679 31.9433 180.902 30.9327L179.387 30.3849C174.248 28.5331 169.062 26.6696 163.648 25.9297C158.624 25.243 153.466 25.5479 148.557 26.8217L147.589 27.0695C140.959 28.7452 134.045 30.1153 128.564 34.1639C125.303 36.5722 122.749 39.7963 120.325 43.0431L119.753 43.818C114.935 50.4234 110.533 58.5673 113.352 66.1459C126.292 64.554 136.373 54.555 148.096 48.8551C148.992 48.4194 150.469 48.2861 150.606 49.272L137.488 57.0133C137.852 59.0124 137.508 61.1328 136.531 62.9146C146.114 60.2101 155.074 55.3266 162.539 48.7439L163.014 48.3214C164.198 47.2567 166.48 46.3759 166.984 47.8852L166.342 48.2432C163.988 49.5656 161.647 51.0121 160.024 53.1535C158.254 55.4895 157.549 58.8856 159.118 61.3609L175.677 51.6235C176.35 51.228 177.083 50.8182 177.86 50.8996C178.636 50.981 179.364 51.8161 179.029 52.52L178.465 52.6373C176.678 53.0165 174.866 53.4917 173.474 54.6545C171.936 55.9396 171.139 58.3489 172.282 59.9947C174.332 62.9467 175.996 66.1662 177.218 69.5453C177.244 68.0677 179.261 67.312 180.591 67.9608C181.92 68.6095 182.624 70.0738 183.105 71.4712C184.484 75.4686 184.848 79.8102 184.155 83.9809C188.319 85.4492 193.203 83.7147 197.208 85.5722C200.926 87.2962 202.745 91.7682 202.486 95.8537C202.228 99.9392 200.295 103.717 198.231 107.253C204 111.717 207.082 119.406 205.99 126.613C206.996 126.449 207.846 125.582 207.989 124.574L210.277 126.016C206.698 128.036 204.152 131.785 203.596 135.853C219.32 121.159 224.54 97.8694 222.271 76.4831L222.182 75.6855C221.283 67.9626 219.144 59.9125 213.329 54.797C216.446 53.0017 220.445 53.7078 223.782 52.3598C226.934 51.086 229.1 48.1336 230.563 45.0681C235.455 34.8197 233.771 21.7803 226.434 13.1075C219.098 4.4348 206.506 0.597513 195.572 3.70207ZM144.17 132.23C144.666 132.311 145.229 132.479 145.423 132.942C145.733 133.681 144.864 134.357 144.112 134.637C143.02 135.043 141.873 135.304 140.712 135.408C139.739 135.496 138.51 135.309 138.209 134.38C138.011 133.769 138.355 133.082 138.875 132.706C139.396 132.329 140.054 132.202 140.694 132.132C141.85 132.007 143.023 132.04 144.17 132.23ZM126.383 121.632C129.805 125.648 135.158 127.774 140.438 127.816C145.719 127.858 150.899 125.951 155.282 123.011L155.651 122.764C156.208 122.394 156.786 122.047 157.439 121.934C158.237 121.795 159.185 122.13 159.457 122.892C154.872 126.781 149.125 129.349 143.134 129.892C137.143 130.435 130.938 128.9 126.049 125.399C125.167 124.767 124.256 123.936 124.219 122.853C124.183 121.77 125.68 120.806 126.383 121.632ZM54.6596 104.62C52.2802 105.378 49.8856 106.489 48.3844 108.483C46.1545 111.444 46.5444 115.937 48.9529 118.755C51.3613 121.574 55.434 122.699 59.0674 121.95C62.7009 121.201 65.8554 118.753 67.8972 115.659C69.939 112.565 70.9387 108.872 71.2415 105.179C71.2923 104.56 71.1797 103.741 70.5683 103.627C65.2914 102.647 59.7731 102.991 54.6596 104.62ZM138.974 90.1906C139.074 91.0423 138.744 91.878 138.44 92.6802C136.727 97.2131 135.684 101.998 135.356 106.832C135.302 107.615 135.272 108.427 135.56 109.158C135.831 109.848 136.461 110.448 137.192 110.489L137.322 110.49C137.987 110.467 138.303 111.457 137.884 111.974C137.466 112.491 136.681 112.549 136.043 112.359C134.733 111.97 133.794 110.752 133.414 109.441C133.034 108.13 133.131 106.73 133.321 105.379C133.967 100.796 135.642 96.3527 135.724 91.7257C135.747 90.42 136.014 88.6599 137.318 88.556C138.174 88.4878 138.875 89.3389 138.974 90.1906ZM155.257 74.7245C152.536 75.2837 150.458 77.5131 149.047 79.903C146.156 84.7993 145.332 90.8701 146.814 96.3582C147.48 98.8224 148.617 101.204 150.402 103.031C152.187 104.857 154.667 106.083 157.222 106.041C159.006 106.012 160.737 105.379 162.286 104.497C167.46 101.549 170.747 95.5741 170.464 89.6319C170.181 83.6897 166.342 78.0534 160.912 75.6086C159.143 74.8125 157.157 74.3341 155.257 74.7245ZM117.7 72.2883C112.838 74.0872 109.699 79.13 109.03 84.265C108.361 89.3999 109.804 94.5943 111.859 99.3482C112.413 100.629 113.042 101.93 114.105 102.835C115.168 103.739 116.778 104.144 117.985 103.444C118.548 103.119 119.073 103.88 119.5 104.37C120.35 105.346 121.845 105.429 123.115 105.176C127.299 104.341 130.514 100.689 131.816 96.6312C133.074 92.7084 132.806 88.4624 132.062 84.4031L131.984 83.9839C131.2 79.89 129.428 75.2893 125.437 74.0702C123.345 73.431 120.82 73.8045 119.203 72.3327C118.812 71.9774 118.196 72.105 117.7 72.2883ZM194.967 89.6461C196.612 91.466 195.938 94.2921 195.116 96.6272L195.049 96.8154C194.72 97.7311 194.379 98.6685 193.749 99.4111C193.12 100.154 192.131 100.672 191.178 100.474C190.224 100.276 189.481 99.1712 189.881 98.2844C190.379 97.1836 192.069 97.1275 192.679 96.0848L191.031 95.9295C189.921 95.8248 188.726 95.6841 187.903 94.9322C187.081 94.1803 186.978 92.5891 187.978 92.0964C188.671 91.7548 189.505 92.0894 190.147 92.5199C190.788 92.9504 191.402 93.4953 192.166 93.6125C192.929 93.7298 193.858 93.1306 193.701 92.375C193.482 91.3233 194.022 90.159 194.967 89.6461ZM157.349 96.7505C157.48 97.474 157.528 98.2415 157.256 98.9249C156.985 99.6084 156.324 100.18 155.589 100.15C154.45 100.102 153.84 98.7922 153.641 97.6711C153.395 96.286 153.779 94.3798 155.184 94.2767C156.386 94.1885 157.136 95.5657 157.349 96.7505ZM122.255 93.8103C122.823 94.636 122.743 95.7393 122.517 96.7152C122.229 97.9638 121.504 99.3569 120.227 99.4873C119.075 99.605 118.09 98.5751 117.714 97.4809C117.254 96.1457 117.477 94.5143 118.521 93.5619C119.565 92.6094 121.455 92.646 122.255 93.8103ZM123.318 79.7184C123.827 79.9522 124.186 80.5933 123.928 81.0905L123.436 81.2197C120.631 81.9671 117.64 83.0075 116.301 85.5403C115.98 86.1474 115.771 86.8171 115.372 87.3756C114.972 87.934 114.298 88.3778 113.625 88.2364C112.858 88.0752 112.415 87.1941 112.497 86.4161C112.579 85.638 113.053 84.9597 113.56 84.3639C115.625 81.941 118.535 80.2507 121.665 79.6562C122.216 79.5516 122.808 79.4845 123.318 79.7184ZM159.167 81.1172C160.006 81.7922 160.644 82.6918 161.491 83.3557C162.207 83.9166 163.112 84.3602 163.437 85.209C163.763 86.0577 162.784 87.2565 162.074 86.6882C160.22 85.2043 158.161 83.975 155.975 83.0457C154.984 82.6244 155.209 80.9588 156.175 80.4846C157.142 80.0103 158.329 80.4423 159.167 81.1172ZM148.778 75.7942C146.951 76.3958 145.652 78.3166 145.776 80.2344C146.475 79.8772 147.008 79.2096 147.2 78.4493L147.173 78.3725C147.984 77.7324 148.562 76.8039 148.778 75.7942Z" fill="url(#paint0_linear_15_3)"/>
<path fill-rule="evenodd" clip-rule="evenodd" d="M45.7951 305.65C46.5304 305.656 47.2067 305.996 47.849 306.371L48.1962 306.577C52.1338 308.931 56.2888 310.922 60.5912 312.517C61.1825 312.736 60.9989 313.728 60.4225 313.984C59.8462 314.239 59.1811 314.011 58.5933 313.783L45.8872 308.846C45.0741 308.53 44.1303 308.048 44.059 307.18C43.988 306.315 44.9262 305.642 45.7951 305.65Z" fill="#E7EAEE"/>
<path fill-rule="evenodd" clip-rule="evenodd" d="M25.539 291.824L64.8457 305.75L65.0928 305.841C66.1316 306.247 67.2552 306.94 67.1442 308.012C67.0537 308.885 66.0864 309.448 65.2081 309.419C64.465 309.394 63.7785 309.064 63.1218 308.701L62.7664 308.501C57.2858 305.397 51.5356 302.836 45.6383 300.623C38.9579 298.116 32.0887 296.057 25.2085 294.161C24.1563 293.871 22.823 292.932 23.4264 292.024C23.8495 291.387 24.8175 291.569 25.539 291.824Z" fill="#E7EAEE"/>
<defs>
<linearGradient id="paint0_linear_15_3" x1="169.876" y1="0" x2="169.876" y2="333.603" gradientUnits="userSpaceOnUse">
<stop stop-color="#0C4A6D"/>
<stop offset="1" stop-color="#2E78A2"/>
</linearGradient>
</defs>
</svg>
