<svg width="525" height="493" viewBox="0 0 525 493" fill="none" xmlns="http://www.w3.org/2000/svg">
<path fill-rule="evenodd" clip-rule="evenodd" d="M37.1018 235.668C37.1018 235.668 14.7888 216.588 46.0925 150.707C77.3962 84.8258 140.792 99.2658 181.315 73.3523C241.188 35.0642 216.647 5.10083 291.305 0.271019C385.304 -5.81008 390.628 92.4609 437.657 92.4609C440.75 92.4609 513.983 63.004 524.702 143.644C530.1 184.255 437.657 246.184 437.657 246.184C437.657 246.184 399.182 281.095 397.069 298.334C388.208 370.631 406.687 453.436 199.607 491.557C172.825 496.487 128.354 478.653 103.82 445.711C84.5989 419.903 7.49598 438.213 0.298646 353.365C-3.32896 310.599 37.1018 235.668 37.1018 235.668Z" fill="white"/>
<path d="M176.501 177.491C177.196 177.08 178.091 177.312 178.502 178.007L180.156 180.801C186.724 191.832 189.351 195.415 192.143 197.034C194.438 198.365 196.811 197.952 201.155 195.402L201.735 195.053C204.467 193.349 216.968 184.753 221.801 181.666C222.481 181.232 223.385 181.431 223.819 182.113C224.253 182.794 224.053 183.698 223.373 184.132L222.629 184.612C217.243 188.107 205.144 196.425 203.002 197.707C197.743 200.855 194.333 201.562 190.917 199.699L190.678 199.565C187.008 197.436 184.153 193.352 175.985 179.494C175.575 178.798 175.806 177.901 176.501 177.491Z" fill="white"/>
<path d="M200.164 194.398C200.964 194.291 201.699 194.853 201.806 195.654C202.303 199.375 203.495 203.106 205.388 206.851C205.752 207.572 205.463 208.452 204.743 208.816C204.023 209.181 203.144 208.892 202.78 208.171C200.744 204.141 199.452 200.097 198.909 196.042C198.802 195.241 199.364 194.505 200.164 194.398Z" fill="white"/>
<path fill-rule="evenodd" clip-rule="evenodd" d="M370.389 283.737C370.153 284.334 369.637 285.161 369.037 285.943L369.554 286.48L370.153 287.119L370.287 287.247C370.345 287.299 370.391 287.33 370.424 287.339C370.618 287.367 370.753 287.546 370.726 287.741C370.698 287.932 370.521 288.07 370.327 288.042C370.151 288.038 369.513 287.789 368.754 287.171C368.616 287.059 368.479 286.93 368.339 286.789C367.901 287.278 367.458 287.699 367.076 287.96C366.513 288.349 366.025 288.38 365.792 288.222C365.563 288.069 365.344 287.554 365.716 286.513C365.774 286.324 365.975 286.225 366.161 286.284C366.347 286.343 366.449 286.541 366.391 286.729C366.334 286.922 366.326 287.099 366.326 287.24L366.542 287.093C366.618 287.038 366.696 286.977 366.768 286.904C367.029 286.647 367.32 286.334 367.613 285.996C367.15 285.456 366.677 284.823 366.295 284.092C366.108 283.735 365.959 283.357 365.818 282.959C365.72 282.737 365.821 282.476 366.044 282.377C366.267 282.279 366.527 282.381 366.625 282.603C367.05 283.496 367.595 284.266 368.131 284.925L368.31 285.14C368.799 284.499 369.22 283.851 369.41 283.357C369.516 283.088 369.821 282.954 370.09 283.057C370.362 283.164 370.496 283.468 370.389 283.737Z" fill="white"/>
<path fill-rule="evenodd" clip-rule="evenodd" d="M152.976 99.2102L152.085 99.0488C147.112 98.1232 143.299 96.9869 136.175 94.5146C135.358 94.2311 134.926 93.3383 135.209 92.5206C135.492 91.7028 136.384 91.2697 137.201 91.5532L138.976 92.1648C145.225 94.2996 148.731 95.2783 153.52 96.1235C169.632 98.9675 181.696 90.6867 182.683 74.8937C182.737 74.0299 183.48 73.3734 184.343 73.4275C185.206 73.4815 185.862 74.2256 185.808 75.0894C184.698 92.851 170.84 102.363 152.976 99.2102Z" fill="url(#paint0_linear_13_54)"/>
<path fill-rule="evenodd" clip-rule="evenodd" d="M193.236 116.123L194.135 118.123L196.185 118.712C196.295 118.744 196.359 118.86 196.328 118.97C196.318 119.005 196.299 119.036 196.274 119.061L194.717 120.613L194.804 122.846C194.809 122.961 194.719 123.058 194.604 123.063C194.565 123.064 194.526 123.055 194.493 123.035L192.73 122.03C192.675 121.999 192.608 121.994 192.549 122.018L190.664 122.767C190.557 122.81 190.436 122.758 190.393 122.65C190.379 122.614 190.375 122.574 190.382 122.536L190.779 120.337L189.452 118.583C189.383 118.491 189.401 118.36 189.493 118.291C189.521 118.269 189.554 118.255 189.59 118.25L191.701 117.953L192.869 116.098C192.931 116 193.06 115.971 193.157 116.032C193.192 116.054 193.219 116.086 193.236 116.123Z" fill="url(#paint1_linear_13_54)"/>
<path d="M399.17 65.8583C399.975 65.8008 400.674 66.4074 400.731 67.2131C400.789 68.0189 400.183 68.7187 399.378 68.7762C393.612 69.188 389.084 71.4247 387.072 76.9576C386.951 77.2907 386.851 77.6121 386.769 77.9176L386.715 78.1275L386.804 77.9433C389.336 72.7661 394.221 69.1689 399.882 68.256L400.253 68.2003C401.052 68.0886 401.79 68.6467 401.902 69.4467C402.013 70.2468 401.456 70.9859 400.657 71.0976C395.397 71.8325 390.899 75.3313 388.936 80.3498L388.809 80.6866C387.877 83.2515 385.638 84.4815 384.197 82.2864C383.318 80.9476 383.376 78.5697 384.326 75.9571C386.736 69.33 392.264 66.3514 399.17 65.8583Z" fill="white"/>
<path d="M392.514 54.9613C393.319 54.9038 394.018 55.5104 394.076 56.3162C394.133 57.1219 393.527 57.8217 392.722 57.8792C383.55 58.5343 375.508 64.4969 372.308 73.2982C371.359 75.9072 371.183 78.1378 371.522 79.2675L371.564 79.3936L371.629 79.3003C371.792 79.0526 371.975 78.6968 372.156 78.2354L372.232 78.0312C375.613 68.7347 383.808 62.2241 393.42 60.8809C394.219 60.7693 394.958 61.3273 395.069 62.1274C395.181 62.9274 394.623 63.6665 393.824 63.7782C385.415 64.9532 378.228 70.571 375.132 78.6204L374.979 79.0317C373.725 82.4792 371.014 83.9685 369.282 81.3287C368.094 79.5198 368.177 76.1049 369.562 72.2977C373.16 62.4022 382.203 55.6977 392.514 54.9613Z" fill="white"/>
<path d="M383.545 40.4318C384.35 40.3743 385.049 40.9809 385.107 41.7867C385.164 42.5924 384.558 43.2922 383.753 43.3497C370.672 44.284 359.201 52.7885 354.637 65.3417C353.083 69.6138 352.954 73.2347 353.802 74.7398L353.879 74.867C354.005 75.0584 353.963 75.064 353.995 75.0376L354.014 75.0248C354.444 74.7887 355.012 73.9841 355.53 72.6497L355.633 72.3757C360.295 59.5543 371.597 50.5755 384.854 48.7231C385.653 48.6114 386.392 49.1694 386.503 49.9695C386.615 50.7696 386.057 51.5087 385.258 51.6204C373.22 53.3024 362.938 61.369 358.549 72.9186L358.379 73.3763C356.757 77.8367 353.505 79.6237 351.437 76.4735C349.895 74.1249 350.008 69.5197 351.89 64.3411C356.852 50.6939 369.324 41.4474 383.545 40.4318Z" fill="white"/>
<path d="M367.533 26.7768C368.325 26.6215 369.093 27.1383 369.248 27.9311C369.403 28.7238 368.887 29.4923 368.095 29.6476C356.252 31.9693 346.729 41.0242 343.966 53.0013C343.032 57.0548 343.314 60.3507 344.232 61.6081L344.353 61.7658L344.363 61.7877L344.38 61.7745C344.709 61.4777 345.093 60.7196 345.39 59.5443L345.453 59.2861C348.294 46.968 357.675 37.433 369.658 34.2309C370.438 34.0225 371.238 34.4863 371.447 35.2668C371.655 36.0473 371.191 36.8489 370.412 37.0573C359.616 39.9422 351.134 48.4506 348.412 59.4768L348.3 59.9442C347.298 64.2886 344.422 66.3625 342.091 63.6124C340.387 61.601 339.968 57.333 341.119 52.3432C344.143 39.2316 354.57 29.3183 367.533 26.7768Z" fill="white"/>
<path d="M205.561 207.173L206.405 206.866C214.377 204.002 221.103 202.739 222.812 204.479C224.31 206.005 225.646 208.769 226.912 212.823C227.152 213.594 226.723 214.414 225.953 214.655C225.183 214.896 224.363 214.466 224.123 213.695C223.028 210.19 221.911 207.83 220.854 206.664L220.811 206.618L220.773 206.62C220.573 206.579 220.273 206.558 219.891 206.566C219.049 206.582 217.898 206.731 216.524 207.003C213.696 207.564 210.122 208.607 206.573 209.918C200.638 212.109 195.695 214.684 192.964 217.01C191.961 217.864 190.13 215.485 191.892 214.123C195.062 211.671 199.869 209.275 205.561 207.173Z" fill="white"/>
<path d="M201.55 179.541C201.55 184.42 206.704 189.702 207.801 190.003C208.579 190.216 195.169 198.963 195.169 198.963C190.323 199.601 187.478 195.501 187.478 189.393C187.478 188.586 201.55 178.733 201.55 179.541Z" fill="white"/>
<path fill-rule="evenodd" clip-rule="evenodd" d="M185.737 182.105C187.435 181.775 188.588 180.359 188.313 178.943C188.038 177.527 186.439 176.647 184.741 176.977C183.044 177.307 181.891 178.723 182.166 180.139C182.441 181.555 184.04 182.435 185.737 182.105Z" fill="#0A1848"/>
<path d="M358.695 18.6657C359.49 18.5271 360.247 19.0598 360.385 19.8557C360.524 20.6515 359.992 21.409 359.197 21.5477C355.415 22.207 351.603 24.498 347.671 28.1421C342.566 32.8739 339.195 39.4123 337.336 48.13C335.838 55.1536 337.22 63.9298 341.135 71.645C345.59 80.4226 353.469 82.592 362.657 84.2718C372.089 85.9964 374.695 84.9314 383.607 81.7596L384.428 81.4614C385.646 80.9995 391.341 78.7689 392.71 78.3544C395.591 77.4821 397.557 77.5551 398.982 79.0754C399.534 79.6645 399.505 80.5902 398.916 81.1429C398.365 81.6612 397.518 81.6677 396.959 81.1812L396.851 81.0773C396.431 80.6288 395.561 80.5768 393.812 81.079L393.556 81.1545C392.239 81.5532 386.063 83.9797 385.263 84.2718C375.637 87.7894 372.372 89.022 362.132 87.1496C351.984 85.2942 343.374 82.5165 338.53 72.9699C334.32 64.6732 332.836 55.2171 334.478 47.5193C336.462 38.2151 340.137 31.1394 345.686 25.9956C350.03 21.9691 354.357 19.422 358.695 18.6657Z" fill="white"/>
<path d="M427.433 135.052C419.103 134.626 412.544 141.066 412.475 149.711C412.417 156.995 416.515 162.993 422.146 164.155C424.422 164.624 428.793 164.059 432.035 162.239C436.958 159.596 440.722 154.163 441.196 149.533C441.97 141.99 435.87 135.484 427.433 135.052Z" fill="white"/>
<path d="M276.492 133.529C279.153 138.908 283.284 151.334 281.497 151.274C276.534 151.108 269.893 143.471 265.247 133.146L264.881 132.315C260.825 122.94 258.396 117.05 261.217 115.922C264.134 114.755 271.001 122.426 276.492 133.529Z" fill="white"/>
<path fill-rule="evenodd" clip-rule="evenodd" d="M261.217 115.805C264.134 114.638 271.102 121.959 276.593 133.061C279.254 138.441 281.058 143.601 281.53 147.302C281.53 147.302 272.544 128.349 267.064 121.407C264.958 118.74 261.217 115.805 261.217 115.805Z" fill="#E7EAEE"/>
<path d="M259.686 163.537C259.9 162.758 260.705 162.3 261.483 162.515C262.261 162.729 262.718 163.534 262.504 164.313C262.229 165.315 258.358 167.943 249.914 173.154L244.583 176.419C234.06 182.832 227.039 186.935 226.161 186.935C220.351 186.935 215.115 181.449 211.293 172.792C207.956 165.233 206.223 156.235 207.006 150.338C207.25 148.498 213.375 143.734 222.832 137.351L224.187 136.442C232.554 130.863 239.705 126.724 242.293 126.202C243.084 126.042 243.854 126.554 244.014 127.346C244.114 127.842 221.051 147.302 218.799 160.218C217.273 168.963 223.04 183.869 225.902 184.004L226.161 184.01C225.928 184.01 226.003 183.956 226.03 183.94L226.294 183.804C226.488 183.703 226.718 183.578 226.983 183.432L228.199 182.751C228.664 182.488 229.183 182.19 229.749 181.863L231.2 181.019C233.968 179.401 237.423 177.341 240.946 175.207L244.297 173.167C248.373 170.675 252.054 168.377 254.821 166.592L256.247 165.665C257.13 165.085 257.876 164.584 258.472 164.168L258.689 164.016C259.018 163.784 259.291 163.584 259.504 163.42C259.504 163.42 259.745 163.325 259.686 163.537Z" fill="white"/>
<path fill-rule="evenodd" clip-rule="evenodd" d="M262.583 134.347C259.052 126.499 257.492 119.307 258.675 114.952C256.538 115.632 253.867 116.853 251.216 118.376C247.692 120.4 244.895 122.662 244.83 123.153C244.149 128.286 246.763 138.273 251.108 147.176C255.755 156.7 261.284 162.816 265.564 162.816C265.973 162.816 267.146 162.574 268.321 162.163C269.993 161.579 271.56 160.727 272.843 159.611C273.481 159.056 274.141 158.429 274.831 157.729L275.662 156.869C276.152 156.35 276.658 155.791 277.447 154.906L278.547 153.677L278.594 153.625C273.089 151.611 267.331 144.512 263.023 135.306L262.583 134.347ZM241.933 122.768C242.388 119.343 255.195 111.941 261.04 111.463C261.284 111.309 261.546 111.176 261.825 111.065C266.887 109.04 274.599 117.713 280.786 129.916L281.21 130.763C284.003 136.409 285.908 141.857 286.427 145.932C287.047 150.801 285.639 154.03 281.946 154.195C281.847 154.579 281.597 154.9 281.265 155.093L281.208 155.122L281.064 155.266C280.919 155.415 280.748 155.6 280.485 155.893L278.67 157.922C278.011 158.648 277.544 159.141 276.911 159.783C276.172 160.534 275.458 161.211 274.759 161.819C271.931 164.279 267.748 165.742 265.564 165.742C264.405 165.742 263.233 165.472 262.059 164.957C260.805 166.267 256.945 168.815 249.913 173.154L244.583 176.42C234.06 182.832 227.039 186.936 226.161 186.936C224.171 186.936 222.249 186.292 220.427 185.098C220.41 185.11 220.393 185.121 220.376 185.132L219.632 185.612C217.043 187.292 212.904 190.086 209.064 192.677L208.824 192.839C209.321 196.391 210.451 199.953 212.219 203.527C218.494 201.585 223.465 200.928 224.9 202.389C226.398 203.915 227.733 206.679 228.999 210.733C229.24 211.504 228.811 212.325 228.041 212.566C227.27 212.807 226.451 212.377 226.21 211.606C225.115 208.1 223.998 205.741 222.942 204.574L222.898 204.528L222.861 204.53C222.661 204.49 222.361 204.469 221.979 204.476C221.137 204.493 219.986 204.641 218.611 204.914C215.784 205.475 212.21 206.518 208.66 207.828C200.547 210.824 194.285 214.537 192.999 217.35C192.622 218.174 192.67 219.379 193.12 221.224L193.204 221.556C193.272 221.818 193.342 222.077 193.435 222.405L193.962 224.274L193.992 224.385L194.033 224.545C194.236 225.327 193.767 226.125 192.986 226.328C192.205 226.531 191.407 226.062 191.205 225.28L190.945 224.334L190.513 222.807C190.464 222.626 190.419 222.46 190.375 222.29C189.691 219.648 189.581 217.796 190.342 216.132C191.632 213.312 195.667 210.39 201.287 207.734L200.065 204.573L199.763 203.774C199.3 202.528 198.761 200.838 198.431 199.605C194.041 201.974 190.983 202.37 187.92 200.699L187.682 200.565C187.076 200.214 186.492 199.809 185.903 199.316L168.778 209.729C168.937 210.072 169.098 210.418 169.261 210.767C170.029 212.417 168.674 213.585 166.595 214.493L166.371 214.589C164.584 215.33 162.972 215.5 162.012 214.445C158.03 210.069 153.814 199.603 156.082 197.209C156.518 196.749 157.667 196.065 159.841 194.924L160.015 194.833C160.059 194.803 160.106 194.774 160.154 194.748L176.162 186.066C176.199 186.046 176.236 186.027 176.274 186.011C175.285 184.374 174.201 182.552 173.002 180.519C172.818 180.22 172.751 179.87 172.801 179.535C172.831 179.33 172.905 179.131 173.022 178.952C173.088 178.85 173.169 178.754 173.262 178.669C176.553 175.545 181.038 172.287 186.663 168.779L187.345 168.356C189.78 166.853 194.718 164.034 198.913 161.639C202.167 159.781 204.974 158.179 205.819 157.643L206.024 157.507C206.329 157.283 206.693 157.196 207.042 157.233C206.764 154.696 206.74 152.339 207.005 150.338C207.25 148.498 213.375 143.734 222.832 137.351L224.187 136.442C232.114 131.156 238.95 127.164 241.847 126.314C241.769 125.004 241.795 123.811 241.933 122.768ZM242.167 129.28C239.329 130.319 232.221 134.543 224.466 139.777L223.224 140.62C219.734 143.004 216.509 145.328 214.074 147.223L213.397 147.754C212.31 148.616 211.431 149.359 210.793 149.955C210.473 150.254 210.221 150.509 210.043 150.713L209.919 150.86C209.892 150.888 209.885 150.877 209.895 150.785L209.902 150.724C209.899 150.747 209.897 150.768 209.895 150.785L209.856 151.099C208.451 163.443 217.368 183.602 225.902 184.004L226.103 184.009C226.12 184.01 226.139 184.01 226.161 184.01L226.103 184.009C225.942 184 226.005 183.954 226.03 183.94L226.293 183.805C226.488 183.703 226.718 183.578 226.983 183.432L228.199 182.752C228.664 182.488 229.183 182.19 229.749 181.863L231.2 181.02C233.968 179.401 237.423 177.341 240.946 175.207L244.297 173.168C248.372 170.675 252.054 168.377 254.821 166.592L256.247 165.665C257.13 165.086 257.876 164.584 258.472 164.168L258.689 164.016C259.005 163.793 259.269 163.6 259.478 163.44C255.715 160.675 252.009 155.569 248.719 148.941L248.482 148.46C245.311 141.962 243.018 134.926 242.167 129.28ZM207.445 160.069C206.391 160.734 203.281 162.511 199.821 164.489L199.82 164.489C195.72 166.833 191.127 169.459 188.878 170.846C183.568 174.124 179.285 177.162 176.106 180.023L177.159 181.801C181.767 189.54 184.435 193.613 186.582 195.914C185.869 194.221 185.499 192.072 185.499 189.378C185.499 189.253 185.515 189.133 185.544 189.018C185.402 188.458 185.601 187.842 186.095 187.479L187.091 186.739C187.688 186.287 188.67 185.536 189.786 184.681C192.23 182.812 195.318 180.45 196.42 179.66C199.885 177.175 202.439 175.781 204.765 175.297C205.876 175.066 206.738 175.723 206.989 176.742L207.03 176.928C207.088 177.231 207.099 177.529 207.097 178.18L207.097 178.387C207.084 180.821 207.326 182.225 208.355 183.848C209.06 184.958 210.095 185.971 211.538 186.878C211.689 186.973 211.816 187.091 211.919 187.225C214.247 185.661 216.427 184.205 218.035 183.162C215.501 180.706 213.218 177.151 211.293 172.792C209.5 168.731 208.171 164.256 207.445 160.069ZM283.528 146.302C283.057 142.601 281.252 137.441 278.591 132.061C273.1 120.959 265.827 112.614 262.909 113.781C260.089 114.909 260.825 122.94 264.881 132.315L265.248 133.146C269.893 143.471 276.534 151.108 281.498 151.274C283.285 151.334 283.983 149.873 283.528 146.302ZM177.783 188.484C180.318 192.587 182.17 195.297 183.784 197.182L167.549 207.053C165.886 203.404 164.398 200.007 162.955 196.556L177.554 188.638C177.637 188.593 177.713 188.541 177.783 188.484ZM209.416 204.45C207.841 201.188 206.753 197.918 206.155 194.64C204.057 196.053 202.231 197.277 201.058 198.04C201.259 199.049 202.006 201.444 202.649 203.148L203.848 206.237L203.963 206.539C205.141 206.041 206.373 205.555 207.649 205.084L208.493 204.777C208.802 204.665 209.11 204.556 209.416 204.45ZM209.364 188.946C207.867 187.908 206.72 186.726 205.889 185.417C204.543 183.296 204.19 181.486 204.174 178.751L204.174 178.506L203.967 178.584C202.485 179.159 200.717 180.201 198.496 181.771L198.122 182.038C197.064 182.796 194.057 185.096 191.63 186.953L191.629 186.954L191.627 186.956L191.626 186.956C190.276 187.989 189.106 188.884 188.552 189.299L188.421 189.396C188.424 194.262 189.638 196.495 191.894 197.578L192.075 197.661C192.613 197.899 192.997 198.019 194.093 198.32C194.115 198.326 194.137 198.332 194.158 198.339C195.296 197.956 196.6 197.317 198.158 196.402L198.738 196.053C200.025 195.251 203.478 192.92 207.276 190.355L207.276 190.355C207.964 189.891 208.664 189.418 209.364 188.946ZM160.372 197.955L160.596 198.488C162.148 202.172 163.761 205.82 165.591 209.798L166.303 211.342C166.069 211.499 165.763 211.665 165.425 211.813C164.941 212.024 164.449 212.173 164.079 212.223L163.962 212.235L163.784 212.021C162.4 210.317 160.795 207.42 159.635 204.54C159.017 203.006 158.577 201.599 158.379 200.518C158.298 200.077 158.26 199.707 158.264 199.426L158.272 199.241C158.275 199.197 158.275 199.173 158.264 199.17L158.308 199.14C158.555 198.97 159.186 198.6 160.123 198.09L160.372 197.955ZM180.528 194.732C179.963 194.156 179.038 194.147 178.462 194.712C177.449 195.707 176.029 196.634 173.548 198.012L171.024 199.415C170.358 199.795 169.812 200.123 169.317 200.444C168.904 200.712 168.535 200.971 168.203 201.228C167.564 201.722 167.447 202.64 167.94 203.28C168.434 203.919 169.351 204.037 169.99 203.543C170.253 203.339 170.558 203.125 170.908 202.898C171.23 202.688 171.585 202.471 171.996 202.231L172.8 201.77L175.364 200.348C177.828 198.964 179.312 197.976 180.508 196.801C181.084 196.235 181.093 195.309 180.528 194.732Z" fill="url(#paint2_linear_13_54)"/>
<path d="M147.844 343.27C155.151 384.051 182.537 414.709 217.483 421.937C223.898 423.264 235.006 423.438 246.508 421.948C261.327 420.028 275.75 415.624 288.434 408.486C323.278 389.739 349.718 351.479 353.145 317.987C356.155 288.567 344.928 261.389 324.603 242C324.603 242 260.754 273.393 229.412 291.237C202.138 306.764 147.844 343.27 147.844 343.27Z" fill="white"/>
<path d="M296.539 221.658C283.442 215.19 267.034 210.08 250.944 209.257C191.934 206.236 145.523 253.427 145.039 314.295C145.039 314.295 210.901 272.3 245.117 252.038C262.141 241.958 296.539 221.658 296.539 221.658Z" fill="white"/>
<path fill-rule="evenodd" clip-rule="evenodd" d="M417.916 190.637C417.717 200.807 406.967 217.733 389.687 236.887C377.169 250.762 362.603 264.174 350.39 273.212L349.63 273.769L350.134 276.015C353.104 289.045 356.981 303.21 355.517 317.495C351.961 352.166 324.871 391.281 289.071 410.5C276.015 417.832 261.173 422.354 245.95 424.322L244.498 424.502C233.147 425.84 222.285 425.618 215.646 424.248C189.881 418.93 168.067 400.9 154.878 374.806C154.834 374.718 154.799 374.628 154.774 374.537C153.037 375.528 150.701 376.636 149.635 376.999L146.712 377.987C115.212 388.593 83.9844 397.466 71.2273 391.928C66.3709 389.82 64.711 385.766 66.742 380.318C68.7158 375.025 74.1885 368.203 83.3704 359.714L83.8749 359.249C92.5755 351.265 111.897 336.676 141.839 315.481L141.847 315.092C143.308 252.291 192.039 204.415 253.292 208.323C272.028 209.518 286.949 216.183 294.401 220.276L297.678 218.515C328.416 202.062 353.079 190.497 371.897 183.575C402.843 172.191 418.147 177.514 417.916 190.637ZM372.905 190.321C338.301 203.05 283.614 231.679 207.472 277.73L205.158 279.131C145.869 315.06 106.609 342.356 85.8496 361.406L84.8264 362.351L83.8563 363.262C68.2727 378.001 65.5105 386.258 72.39 389.245C84.1666 394.357 115.792 385.738 146.763 375.569L149.635 374.621C152.397 373.705 154.228 373.179 155.362 372.937C155.411 372.901 155.465 372.869 155.522 372.84C155.91 372.644 156.343 372.637 156.718 372.784C156.799 372.8 156.852 372.825 156.879 372.86C157.132 372.997 157.346 373.209 157.486 373.485C170.289 398.817 191.385 414.254 216.236 419.383C222.687 420.714 233.571 420.909 244.895 419.507L245.575 419.421C260.449 417.498 274.935 415.084 287.666 407.935C322.649 389.154 349.155 350.883 352.609 317.196C354.086 302.799 352.202 288.667 347.193 275.514C346.78 275.804 346.369 276.087 345.963 276.365C345.194 276.89 345.481 276.04 346.824 273.814C346.895 273.524 347.055 273.26 347.285 273.061L347.698 272.405C347.843 272.177 347.995 271.939 348.155 271.691L349.887 270.229C366.209 256.409 378.753 244.642 387.518 234.926L388.519 233.811C404.736 215.644 414.817 199.597 414.983 190.583C415.166 180.695 402.134 179.569 372.905 190.321ZM226.18 375.301C230.1 387.296 224.169 395.011 213.729 395.41C204.082 395.778 195.298 389.693 195.745 381.046C196.132 373.573 201.244 365.584 207.537 362.65C215.148 359.102 222.292 363.406 226.18 375.301ZM209.079 365.965C204.043 368.312 199.712 375.082 199.393 381.236C199.076 387.364 205.843 392.052 213.59 391.756C221.688 391.446 225.846 386.039 222.708 376.438C219.441 366.443 214.474 363.45 209.079 365.965ZM305.89 350.859C310.892 360.321 309.582 369.617 301.891 373.784L301.675 373.897L301.564 374.009C291.249 384.233 278.363 385.474 269.96 378.063L269.672 377.804C259.992 368.928 262.298 353.678 277.701 341.723C287.613 334.03 299.72 339.189 305.89 350.859ZM279.619 344.2C265.636 355.053 263.671 368.05 271.787 375.493C277.607 380.83 286.208 381.126 294.24 375.945L294.398 375.84L294.339 375.828C293.783 375.681 293.337 375.232 293.21 374.647L293.185 374.498C293.083 373.638 293.697 372.859 294.555 372.757C296.519 372.524 298.224 372.049 299.669 371.37L299.866 371.274L300.106 371.026C301.048 370.032 301.969 368.952 302.861 367.783L303.157 367.39C303.492 366.941 304.02 366.723 304.54 366.765L304.58 366.77L304.601 366.731C306.476 363.02 306.032 357.992 303.286 352.64L303.122 352.325C297.758 342.177 287.73 337.905 279.619 344.2ZM372.731 231.725C371.927 234.586 369.478 238.514 365.724 243.164C359.179 251.271 349.349 260.708 340.756 267.16L342.662 265.062C342.643 265.045 342.627 265.022 342.614 264.997L341.956 263.787C337.656 255.93 332.865 248.18 325.123 241.862C305.083 250.133 282.105 261.44 261.17 273.262L254.308 277.144C203.776 305.799 177.19 322.955 148.76 344.044C149.833 348.881 151.185 353.602 152.804 358.176C153.058 358.894 149.738 361.58 149.13 361.249C143.459 365.053 134.578 367.816 129.522 367.959C124.594 368.099 121.747 366.102 123.214 362.121C124.441 358.79 129.062 354.04 137.379 347.673L138.328 346.953L140.245 345.511C171.547 322.052 202.535 303.014 259.734 270.714L262.128 269.369C301.359 247.447 346.789 227.698 367.597 225.876C371.874 225.501 373.814 227.871 372.731 231.725ZM144.953 346.882L138.395 351.836C132.544 356.277 128.326 359.561 126.048 361.668L125.88 361.824C123.099 364.436 126.247 365.126 129.439 365.035C134.273 364.898 141.679 361.228 147.948 357.888C146.789 354.295 145.789 350.622 144.953 346.882ZM247.539 331C248.321 331.199 248.794 331.994 248.596 332.777C248.397 333.56 247.602 334.034 246.82 333.835C242.891 332.837 240.57 333.22 239.817 334.279C239.317 334.982 239.594 336.18 240.528 336.945C241.258 337.543 242.23 337.829 242.899 337.683C243.48 337.556 243.806 337.107 243.806 335.984C243.806 335.176 244.46 334.521 245.267 334.521C246.074 334.521 246.728 335.176 246.728 335.984C246.728 338.427 245.508 340.108 243.52 340.541C241.923 340.889 240.061 340.342 238.678 339.209C236.635 337.537 235.968 334.648 237.436 332.583C239.045 330.319 242.571 329.737 247.539 331ZM183.355 325.63C185.608 326.306 186.579 328.038 186.885 330.637L186.915 330.918L186.952 331.346C186.957 331.417 186.962 331.49 186.967 331.569L187.044 333.053L187.067 333.388C187.079 333.535 187.092 333.655 187.107 333.762L187.146 333.986L187.17 334.084L187.211 334.12C187.662 334.562 187.781 335.255 187.49 335.828L187.415 335.957C186.978 336.636 186.073 336.832 185.395 336.394C184.462 335.791 184.25 335.171 184.137 333.392L184.044 331.651C184.033 331.493 184.022 331.357 184.007 331.203C183.84 329.499 183.426 328.705 182.516 328.432C179.964 327.667 178.499 328.449 178.035 330.156C177.622 331.678 178.22 333.277 179.267 333.721L179.532 333.82C180.217 334.113 180.579 334.884 180.349 335.609C180.103 336.378 179.281 336.803 178.513 336.558C175.73 335.67 174.408 332.361 175.215 329.389C176.116 326.071 179.25 324.399 183.355 325.63ZM288.773 303.233C292.819 308.927 292.067 316.173 285.575 319.452C284.854 319.815 283.975 319.526 283.612 318.805C283.248 318.083 283.538 317.204 284.258 316.84C288.959 314.466 289.495 309.297 286.391 304.928C283.376 300.685 279.178 300.218 276.294 304.803C273.236 309.665 273.458 312.519 275.66 313.804C277.408 314.824 280.222 314.61 280.996 313.776L281.071 313.684C281.539 313.026 282.451 312.872 283.108 313.341C283.766 313.809 283.919 314.722 283.451 315.38C281.827 317.665 277.192 318.084 274.188 316.331C270.342 314.086 269.974 309.36 273.821 303.245C277.94 296.696 284.659 297.443 288.773 303.233ZM228.192 294.846C228.952 294.846 229.576 295.426 229.647 296.167L229.653 296.308C229.653 296.566 229.893 296.854 230.75 297.483L231.561 298.066C232.446 298.712 232.872 299.112 233.275 299.75C234.197 301.208 234.719 302.693 234.719 304.439C234.719 308.909 228.01 314.989 220.688 317.695C211.91 320.938 204.718 318.533 202.761 309.516C202.589 308.726 203.09 307.948 203.878 307.776C204.667 307.604 205.445 308.105 205.616 308.895C207.135 315.893 212.379 317.646 219.676 314.95C225.977 312.622 231.797 307.348 231.797 304.439C231.797 303.314 231.454 302.341 230.805 301.314L230.717 301.19C230.569 301.002 230.336 300.798 229.917 300.488L228.953 299.792C227.352 298.61 226.731 297.812 226.731 296.308C226.731 295.501 227.385 294.846 228.192 294.846ZM235.051 213.773L234.128 213.877C184.268 219.88 146.864 259.801 144.824 313.372L150.174 309.604C165.529 298.814 183.353 286.489 203.645 272.629L207.599 270.237C219.403 263.107 230.69 256.398 241.464 250.104C241.268 249.759 241.213 249.335 241.346 248.928C242.099 246.626 242.795 245.079 244.071 243.53C248.063 238.682 253.533 236.314 257.408 239.358C257.789 239.658 257.982 240.109 257.966 240.56L261.408 238.594C272.248 232.417 282.505 226.712 292.185 221.472L288.404 220.395C282.797 218.815 275.821 216.941 268.872 215.499C268.936 220.127 265.475 223.824 259.725 226.366C254.836 228.527 248.467 229.69 243.937 229.42C235.464 228.914 230.695 221.474 235.051 213.773ZM322.515 277.295C326.09 287.075 323.14 295.967 314.212 295.909C301.491 295.826 289.069 284.707 291.078 274.747C291.974 270.303 295.31 266.372 301.113 264.41C310.381 261.278 318.875 267.34 322.515 277.295ZM302.048 267.182C297.253 268.803 294.636 271.886 293.942 275.325C292.348 283.231 303.163 292.911 314.231 292.984C320.571 293.025 322.751 286.453 319.77 278.301C316.616 269.674 309.565 264.641 302.048 267.182ZM194.606 232.555L194.71 232.706L195.413 233.826C195.758 234.394 196.066 234.952 196.36 235.553C199.596 242.176 199.513 250.859 194.036 262.912C191.555 268.372 185.235 275.711 179.715 280.089C172.668 285.681 167.406 286.951 161.125 286.261L159.262 286.041L159.034 286.021C158.91 286.011 158.83 286.011 158.743 286.014L158.615 286.019C158.518 286.024 158.484 286.019 158.478 286.006L158.478 285.996L158.431 286.072C158.007 286.68 157.184 286.88 156.523 286.512C155.818 286.119 155.564 285.229 155.956 284.523C156.482 283.578 157.359 283.15 158.476 283.097C158.772 283.083 159.085 283.093 159.458 283.124L159.894 283.166L161.099 283.313C166.82 284.007 171.371 282.977 177.9 277.797C183.084 273.684 189.11 266.688 191.376 261.701C196.501 250.422 196.576 242.653 193.735 236.838C193.546 236.451 193.348 236.083 193.134 235.714L192.829 235.202L192.216 234.232C191.787 233.548 191.994 232.645 192.677 232.216C193.318 231.813 194.151 231.97 194.606 232.555ZM367.852 228.79C358.511 229.608 343.867 234.227 326.987 241.098L327.48 241.535C332.178 245.754 341.657 255.76 344.623 262.897L347.579 259.616C354.871 251.497 360.161 245.4 363.451 241.325L364.117 240.49C367.26 236.496 369.292 233.159 369.918 230.932L370.007 230.594C370.397 228.987 369.945 228.607 367.852 228.79ZM227.942 233.542C231.579 235.302 233.055 239.22 230.662 242.772C230.211 243.442 229.303 243.619 228.634 243.168C227.965 242.716 227.788 241.807 228.239 241.137C229.555 239.183 228.813 237.212 226.67 236.175C224.414 235.083 221.942 235.711 220.666 238.095C219.49 240.292 219.409 243.266 220.348 245.213C221.172 246.923 222.371 247.251 224.201 245.872C224.846 245.386 225.762 245.515 226.248 246.161C226.733 246.806 226.604 247.723 225.959 248.209C222.624 250.722 219.324 249.82 217.716 246.484C216.369 243.688 216.476 239.729 218.09 236.714C220.149 232.867 224.346 231.801 227.942 233.542ZM246.326 245.391C245.645 246.218 245.158 247.091 244.707 248.212C248.472 246.022 252.173 243.882 255.811 241.794L255.705 241.732L255.604 241.659C253.373 239.907 249.44 241.609 246.326 245.391ZM240.095 213.326L238.817 213.416L238.731 213.524C233.68 219.914 235.626 225.101 242.523 225.837C247.478 226.366 260.629 222.687 262.172 221.395C263.674 220.138 265.575 217.245 265.867 214.902C261.404 214.061 257.038 213.444 253.143 213.244C249.163 213.041 245.238 213.046 241.379 213.25L240.095 213.326Z" fill="url(#paint3_linear_13_54)"/>
<path d="M372.018 190.683C402.964 179.3 402.255 182.677 373.026 193.429C338.422 206.159 207.802 285.919 207.802 285.919C148.513 321.848 144.078 316.302 201.545 281.34L205.087 279.189C205.755 278.785 271.182 237.448 317.934 215.333C323.195 212.844 368.495 191.98 372.018 190.683Z" fill="white"/>
<path fill-rule="evenodd" clip-rule="evenodd" d="M425.452 134.01C415.863 133.519 408.378 140.979 408.3 150.739C408.235 158.917 412.922 165.86 419.636 167.246C421.406 167.611 426.508 167.611 430.934 165.125L431.301 164.923C436.882 161.76 440.678 155.742 441.185 150.791C442.085 142.014 435.041 134.501 425.452 134.01ZM410.388 150.756C410.388 150.693 410.389 150.63 410.39 150.567C410.45 150.548 410.509 150.523 410.566 150.492C418.084 146.438 422.725 143.348 424.578 141.117C425.802 139.645 426.399 137.983 426.35 136.178C427.613 136.318 428.816 136.595 429.944 136.992C429.937 137.046 429.935 137.102 429.937 137.158C430.028 139.756 429.337 141.832 427.866 143.449C426.176 145.307 424.128 147.076 421.8 148.743C419.312 150.526 416.639 152.1 413.967 153.448C413.343 153.763 412.749 154.049 412.193 154.308L411.386 154.674C411.27 154.725 411.163 154.772 411.065 154.815L410.825 154.916C410.529 153.599 410.376 152.203 410.388 150.756ZM411.411 156.936C412.072 158.771 413.029 160.397 414.215 161.722L414.838 161.362C424.649 155.676 430.74 151.209 433.045 148.058C435.376 144.872 436.207 142.426 435.686 140.762C435.673 140.723 435.664 140.684 435.656 140.645C434.629 139.565 433.407 138.638 432.029 137.906C431.97 140.667 431.098 142.999 429.41 144.856C427.613 146.832 425.455 148.694 423.015 150.443C420.431 152.294 417.668 153.921 414.906 155.314C414.1 155.721 413.341 156.083 412.643 156.4L411.83 156.761L411.411 156.936ZM419.225 164.989C417.992 164.62 416.844 164.015 415.81 163.213C425.91 157.366 432.195 152.758 434.729 149.293C436.302 147.143 437.307 145.21 437.716 143.485C438.224 144.435 438.609 145.448 438.855 146.506C438.802 146.613 438.767 146.732 438.754 146.858C438.5 149.301 437.242 151.725 434.942 154.14C432.735 156.457 427.972 159.8 420.695 164.123L419.225 164.989ZM422.753 165.327C424.993 165.185 427.734 164.527 429.948 163.284C434.066 161.073 437.372 156.91 438.621 152.898C438.018 153.804 437.294 154.698 436.453 155.582C434.187 157.961 429.632 161.196 422.753 165.327ZM410.995 147.88L410.623 148.082C411.808 141.178 417.318 136.223 424.257 136.08C424.331 137.437 423.91 138.654 422.973 139.782C421.459 141.604 417.442 144.332 410.995 147.88Z" fill="url(#paint4_linear_13_54)"/>
<path fill-rule="evenodd" clip-rule="evenodd" d="M500.799 113.99C500.994 114.012 501.13 114.188 501.108 114.382C501.107 114.667 500.924 114.821 500.677 114.921C500.455 115.011 500.1 114.976 499.894 115.004C497.633 115.179 495.857 113.514 495.076 111.368C494.325 109.307 494.524 106.842 495.888 105.322C496.044 105.143 496.316 105.125 496.495 105.282C496.674 105.439 497.691 105.712 497.534 105.891C496.41 107.204 495.65 108.001 496.71 111.118C497.77 114.235 500.654 113.973 500.799 113.99Z" fill="#E7EAEE"/>
<path fill-rule="evenodd" clip-rule="evenodd" d="M140.922 136.306C140.328 135.898 139.515 136.049 139.108 136.644C138.7 137.238 138.851 138.051 139.445 138.46C140.097 138.908 140.674 139.322 141.183 139.707C140.635 140.143 140.087 140.644 139.518 141.213L138.364 142.386C137.857 142.898 137.861 143.725 138.373 144.233C138.884 144.741 139.71 144.737 140.217 144.225L141.602 142.824C142.165 142.275 142.693 141.816 143.224 141.434C144.404 142.604 144.763 143.463 144.782 144.316L144.782 144.535L144.789 144.669C144.856 145.327 145.411 145.841 146.087 145.841C146.807 145.841 147.391 145.256 147.391 144.535L147.391 144.278C147.367 142.948 146.898 141.683 145.635 140.237C146.469 139.988 147.409 139.849 148.549 139.789C149.268 139.751 149.821 139.137 149.784 138.417C149.746 137.696 149.132 137.143 148.413 137.181C146.434 137.284 144.896 137.614 143.526 138.242C142.955 137.773 142.307 137.282 141.575 136.762L140.922 136.306Z" fill="url(#paint5_linear_13_54)"/>
<path fill-rule="evenodd" clip-rule="evenodd" d="M336.403 422.475L337.308 422.48C342.367 422.527 346.319 422.983 353.763 424.179C354.617 424.316 355.198 425.12 355.061 425.975C354.924 426.83 354.121 427.411 353.267 427.274L350.827 426.89C344.668 425.943 341.118 425.61 336.403 425.61C320.042 425.61 309.598 435.862 311.366 451.587C311.462 452.447 310.844 453.222 309.985 453.319C309.126 453.416 308.351 452.797 308.254 451.937C306.266 434.252 318.264 422.475 336.403 422.475ZM349.075 428.803L348.922 428.669C348.774 428.542 348.547 428.56 348.423 428.708C348.293 428.857 348.313 429.08 348.461 429.207L348.618 429.341C348.766 429.468 348.988 429.451 349.117 429.302C349.242 429.154 349.227 428.93 349.075 428.803ZM320.705 432.081C320.144 431.629 319.322 431.719 318.871 432.281C317.049 434.551 315.72 436.763 314.892 438.922C314.086 441.022 313.811 444.551 314.02 449.596L314.071 450.662C314.108 451.382 314.722 451.935 315.442 451.898C316.161 451.86 316.714 451.245 316.676 450.525C316.399 445.254 316.635 441.663 317.327 439.859C318.052 437.97 319.243 435.987 320.905 433.917C321.356 433.355 321.267 432.533 320.705 432.081ZM334.943 427.76C335.583 427.428 336.37 427.679 336.702 428.319C337.033 428.959 336.783 429.748 336.143 430.079C333.494 431.453 331.47 433.757 330.059 437.041C328.546 440.566 327.307 443.711 326.344 446.475C326.106 447.156 325.363 447.515 324.682 447.278C324.002 447.04 323.643 446.296 323.88 445.615C324.865 442.788 326.126 439.587 327.662 436.01C329.302 432.192 331.733 429.425 334.943 427.76ZM342.528 427.691C342.053 427.149 341.229 427.094 340.687 427.57C338.509 429.48 336.836 431.217 335.665 432.792C334.502 434.356 333.141 436.695 331.565 439.825C331.241 440.469 331.5 441.254 332.143 441.579C332.787 441.903 333.571 441.644 333.895 441C335.409 437.994 336.702 435.772 337.758 434.351C338.806 432.942 340.357 431.332 342.406 429.534C342.948 429.059 343.003 428.234 342.528 427.691ZM337.765 442.44C337.223 442.915 336.398 442.861 335.924 442.318C335.449 441.776 335.503 440.951 336.045 440.475C338.095 438.678 339.645 437.068 340.693 435.658C341.749 434.237 343.042 432.016 344.556 429.009C344.88 428.365 345.665 428.106 346.308 428.431C346.952 428.756 347.21 429.541 346.886 430.185C345.31 433.314 343.949 435.653 342.786 437.218C341.615 438.793 339.942 440.53 337.765 442.44ZM327.887 428.825C327.294 428.415 326.482 428.564 326.072 429.157C323.155 433.386 321.293 436.545 320.47 438.691C319.643 440.844 319.072 443.748 318.741 447.417C318.676 448.135 319.205 448.77 319.923 448.835C320.64 448.9 321.275 448.37 321.339 447.652C321.651 444.203 322.178 441.523 322.905 439.627C323.583 437.861 325.164 435.136 327.633 431.498L328.219 430.642C328.629 430.048 328.48 429.235 327.887 428.825Z" fill="url(#paint6_linear_13_54)"/>
<path fill-rule="evenodd" clip-rule="evenodd" d="M303.121 421.123L304.02 423.123L306.069 423.712C306.18 423.744 306.244 423.86 306.212 423.97C306.202 424.005 306.184 424.036 306.159 424.061L304.602 425.613L304.689 427.846C304.694 427.961 304.604 428.058 304.489 428.063C304.45 428.064 304.411 428.055 304.377 428.035L302.614 427.03C302.559 426.999 302.493 426.994 302.434 427.018L300.549 427.767C300.442 427.81 300.32 427.758 300.278 427.65C300.263 427.614 300.259 427.574 300.266 427.536L300.663 425.337L299.337 423.583C299.267 423.491 299.286 423.36 299.377 423.291C299.406 423.269 299.439 423.255 299.474 423.25L301.586 422.953L302.754 421.098C302.815 421 302.944 420.971 303.042 421.032C303.077 421.054 303.104 421.086 303.121 421.123Z" fill="url(#paint7_linear_13_54)"/>
<path fill-rule="evenodd" clip-rule="evenodd" d="M375.715 141.137C376.195 141.564 376.794 142.332 377.323 143.164L378.004 142.861L378.809 142.516C378.971 142.442 379.076 142.384 379.108 142.337C379.201 142.164 379.415 142.098 379.589 142.19C379.759 142.282 379.828 142.496 379.735 142.669C379.671 142.833 379.219 143.347 378.379 143.851C378.227 143.942 378.059 144.027 377.879 144.109C378.188 144.689 378.432 145.25 378.546 145.699C378.718 146.361 378.581 146.831 378.353 146.996C378.131 147.159 377.572 147.189 376.722 146.483C376.566 146.363 376.541 146.141 376.66 145.986C376.779 145.831 377 145.803 377.157 145.922C377.318 146.042 377.481 146.109 377.614 146.158L377.549 145.905C377.524 145.814 377.493 145.719 377.45 145.627C377.297 145.294 377.104 144.913 376.886 144.521C376.221 144.773 375.465 145.001 374.648 145.111C374.249 145.164 373.843 145.175 373.421 145.171C373.179 145.187 372.969 145.003 372.953 144.76C372.937 144.517 373.121 144.307 373.363 144.291C374.347 144.196 375.255 143.947 376.058 143.668L376.321 143.573C375.887 142.894 375.422 142.277 375.023 141.928C374.807 141.737 374.785 141.404 374.974 141.186C375.168 140.967 375.499 140.946 375.715 141.137Z" fill="url(#paint8_linear_13_54)"/>
<path fill-rule="evenodd" clip-rule="evenodd" d="M86.8096 319.569C85.4451 319.658 83.2813 320.007 81.5125 320.709C79.9996 321.31 79.9996 337.661 85.1722 338.964C90.3149 340.681 95.9381 338.408 95.2667 329.658C95.2547 329.475 95.1066 328.978 94.937 328.407C94.6885 327.572 94.3937 326.58 94.4114 326.193C94.4813 324.819 94.1206 323.66 93.1688 322.933C92.1434 320.757 90.1339 319.355 86.8096 319.569ZM86.0691 334.984C83.5376 333.09 83.6265 324.253 86.5156 323.663C88.3137 325.047 89.9549 327.044 90.5085 330.894C89.889 333.013 88.5811 334.24 87.4376 335.312C87.3152 335.427 87.1948 335.54 87.0772 335.652C86.7508 335.466 86.4145 335.24 86.0691 334.984Z" fill="white"/>
<path fill-rule="evenodd" clip-rule="evenodd" d="M84.6466 328.205C84.4171 326.831 84.5736 325.292 85.264 323.649C85.5771 322.905 86.4003 322.299 87.4301 321.892C88.634 321.416 90.1066 321.18 91.0352 321.119C93.2976 320.973 94.6648 321.921 95.362 323.393C96.0095 323.884 96.2546 324.668 96.2067 325.597C96.1862 326.038 96.7677 327.636 96.7878 327.941C97.2423 333.858 93.4149 335.397 89.9155 334.238C88.586 334.914 87.3036 335.026 86.3386 334.308C85.4728 333.667 84.8083 332.314 84.656 329.929C84.6155 329.314 84.6123 328.739 84.6466 328.205ZM90.8534 324.308C88.8456 324.703 88.7616 330.505 90.5149 331.742C90.7541 331.909 90.9871 332.057 91.2133 332.178C92.0608 331.413 92.6928 330.795 93.0514 329.529C93.4099 328.264 92.0986 325.212 90.8534 324.308Z" fill="#0A1848"/>
<path fill-rule="evenodd" clip-rule="evenodd" d="M221.665 473.115C221.071 472.706 220.259 472.857 219.851 473.452C219.443 474.047 219.594 474.86 220.188 475.268C220.84 475.716 221.417 476.13 221.926 476.515C221.378 476.952 220.83 477.452 220.261 478.021L219.108 479.194C218.6 479.707 218.604 480.534 219.116 481.041C219.627 481.549 220.453 481.545 220.961 481.033L222.345 479.633C222.908 479.083 223.436 478.624 223.967 478.242C225.147 479.413 225.506 480.271 225.526 481.125L225.526 481.344L225.532 481.477C225.599 482.136 226.155 482.649 226.83 482.649C227.551 482.649 228.135 482.065 228.135 481.344L228.135 481.087C228.11 479.756 227.641 478.491 226.379 477.045C227.213 476.796 228.152 476.657 229.292 476.597C230.012 476.56 230.564 475.945 230.527 475.225C230.489 474.505 229.875 473.951 229.156 473.989C227.177 474.092 225.64 474.423 224.27 475.05C223.698 474.582 223.05 474.091 222.318 473.571L221.665 473.115Z" fill="url(#paint9_linear_13_54)"/>
<path fill-rule="evenodd" clip-rule="evenodd" d="M221.665 473.115C221.071 472.706 220.259 472.857 219.851 473.452C219.443 474.047 219.594 474.86 220.188 475.268C220.84 475.716 221.417 476.13 221.926 476.515C221.378 476.952 220.83 477.452 220.261 478.021L219.108 479.194C218.6 479.707 218.604 480.534 219.116 481.041C219.627 481.549 220.453 481.545 220.961 481.033L222.345 479.633C222.908 479.083 223.436 478.624 223.967 478.242C225.147 479.413 225.506 480.271 225.526 481.125L225.526 481.344L225.532 481.477C225.599 482.136 226.155 482.649 226.83 482.649C227.551 482.649 228.135 482.065 228.135 481.344L228.135 481.087C228.11 479.756 227.641 478.491 226.379 477.045C227.213 476.796 228.152 476.657 229.292 476.597C230.012 476.56 230.564 475.945 230.527 475.225C230.489 474.505 229.875 473.951 229.156 473.989C227.177 474.092 225.64 474.423 224.27 475.05C223.698 474.582 223.05 474.091 222.318 473.571L221.665 473.115Z" fill="url(#paint10_linear_13_54)"/>
<path fill-rule="evenodd" clip-rule="evenodd" d="M266.252 437.336L267.151 439.336L269.2 439.925C269.311 439.957 269.375 440.072 269.343 440.183C269.333 440.218 269.315 440.249 269.29 440.274L267.733 441.826L267.82 444.059C267.824 444.174 267.735 444.271 267.62 444.276C267.581 444.277 267.542 444.268 267.508 444.248L265.745 443.243C265.69 443.212 265.624 443.207 265.565 443.231L263.68 443.98C263.573 444.023 263.451 443.971 263.409 443.863C263.394 443.827 263.39 443.787 263.397 443.749L263.794 441.55L262.468 439.796C262.398 439.704 262.416 439.573 262.508 439.504C262.537 439.482 262.57 439.468 262.605 439.463L264.716 439.166L265.885 437.311C265.946 437.213 266.075 437.184 266.173 437.245C266.207 437.267 266.235 437.299 266.252 437.336Z" fill="url(#paint11_linear_13_54)"/>
<path fill-rule="evenodd" clip-rule="evenodd" d="M153.15 423.595L154.678 425.166L156.805 425.018C156.92 425.01 157.02 425.097 157.028 425.212C157.031 425.247 157.024 425.283 157.009 425.315L156.076 427.306L156.921 429.375C156.964 429.482 156.913 429.604 156.807 429.647C156.77 429.662 156.731 429.666 156.693 429.66L154.693 429.319C154.63 429.308 154.566 429.327 154.519 429.369L153.003 430.719C152.917 430.795 152.785 430.788 152.709 430.702C152.683 430.672 152.666 430.637 152.659 430.598L152.281 428.396L150.435 427.202C150.338 427.139 150.311 427.01 150.373 426.913C150.392 426.883 150.419 426.859 150.45 426.842L152.333 425.839L152.797 423.696C152.821 423.583 152.932 423.512 153.045 423.536C153.085 423.545 153.122 423.565 153.15 423.595Z" fill="url(#paint12_linear_13_54)"/>
<path fill-rule="evenodd" clip-rule="evenodd" d="M129.288 280.379L130.187 282.379L132.237 282.968C132.347 283 132.412 283.115 132.38 283.226C132.37 283.261 132.352 283.292 132.326 283.317L130.769 284.868L130.857 287.102C130.861 287.217 130.771 287.314 130.656 287.319C130.617 287.32 130.579 287.311 130.545 287.291L128.782 286.286C128.727 286.255 128.66 286.25 128.602 286.274L126.716 287.023C126.609 287.066 126.488 287.013 126.445 286.906C126.431 286.87 126.427 286.83 126.434 286.792L126.831 284.593L125.504 282.839C125.435 282.747 125.453 282.616 125.545 282.547C125.573 282.525 125.607 282.511 125.642 282.506L127.753 282.209L128.921 280.353C128.983 280.256 129.112 280.227 129.209 280.288C129.244 280.31 129.271 280.342 129.288 280.379Z" fill="url(#paint13_linear_13_54)"/>
<path fill-rule="evenodd" clip-rule="evenodd" d="M129.079 282.371L129.461 283.22L130.332 283.471C130.379 283.484 130.406 283.533 130.392 283.58C130.388 283.595 130.38 283.608 130.37 283.619L129.708 284.278L129.745 285.226C129.747 285.275 129.709 285.317 129.66 285.319C129.644 285.319 129.627 285.315 129.613 285.307L128.864 284.88C128.841 284.867 128.813 284.865 128.788 284.875L127.987 285.193C127.941 285.211 127.89 285.189 127.872 285.143C127.866 285.128 127.864 285.111 127.867 285.095L128.035 284.161L127.472 283.416C127.443 283.377 127.45 283.321 127.489 283.292C127.501 283.283 127.515 283.277 127.53 283.275L128.427 283.148L128.923 282.36C128.95 282.319 129.004 282.306 129.046 282.332C129.06 282.342 129.072 282.355 129.079 282.371Z" fill="#E7EAEE"/>
<path fill-rule="evenodd" clip-rule="evenodd" d="M22.4154 368.123L23.3144 370.123L25.3638 370.712C25.4746 370.744 25.5386 370.86 25.5068 370.97C25.497 371.005 25.4786 371.036 25.4534 371.061L23.8964 372.613L23.9836 374.846C23.9881 374.961 23.8984 375.058 23.7832 375.063C23.7442 375.064 23.7056 375.055 23.6717 375.035L21.909 374.03C21.8539 373.999 21.7876 373.994 21.7287 374.018L19.8434 374.767C19.7362 374.81 19.6149 374.758 19.5723 374.65C19.5579 374.614 19.554 374.574 19.5609 374.536L19.9577 372.337L18.6316 370.583C18.562 370.491 18.5801 370.36 18.672 370.291C18.7003 370.269 18.7337 370.255 18.7689 370.25L20.8802 369.953L22.0485 368.098C22.1099 368 22.2388 367.971 22.3364 368.032C22.3711 368.054 22.3985 368.086 22.4154 368.123Z" fill="url(#paint14_linear_13_54)"/>
<path fill-rule="evenodd" clip-rule="evenodd" d="M112.742 188.545L113.395 189.001C114.128 189.522 116.864 192.103 117.436 192.571C118.804 191.943 120.342 191.612 122.321 191.509C123.04 191.471 123.654 192.025 123.691 192.745C123.729 193.465 123.176 194.08 122.457 194.117C121.317 194.177 120.377 194.316 119.542 194.565C120.806 196.012 121.275 197.277 121.299 198.607L121.299 198.863C121.299 199.585 120.715 200.169 119.995 200.169C119.319 200.169 118.764 199.656 118.697 198.997L118.69 198.863L118.69 198.645C118.671 197.791 118.312 196.933 117.132 195.763C116.601 196.144 116.073 196.603 115.51 197.153L114.125 198.553C113.618 199.065 112.792 199.069 112.28 198.561C111.769 198.054 111.765 197.227 112.272 196.714L113.426 195.541C113.995 194.972 114.542 194.472 115.09 194.035C114.128 191.836 110.52 189.477 110.928 188.882C111.336 188.288 112.148 188.137 112.742 188.545Z" fill="url(#paint15_linear_13_54)"/>
<path fill-rule="evenodd" clip-rule="evenodd" d="M364.453 339.161L366.23 340.443L368.299 339.928C368.411 339.9 368.524 339.968 368.552 340.08C368.561 340.114 368.56 340.151 368.551 340.185L367.978 342.308L369.169 344.198C369.23 344.296 369.201 344.425 369.103 344.486C369.071 344.507 369.032 344.518 368.993 344.519L366.965 344.531C366.901 344.531 366.842 344.56 366.802 344.61L365.544 346.203C365.473 346.293 365.341 346.309 365.251 346.237C365.22 346.213 365.197 346.181 365.184 346.144L364.429 344.041L362.405 343.186C362.299 343.141 362.249 343.018 362.294 342.912C362.307 342.879 362.329 342.851 362.357 342.829L364.037 341.514L364.122 339.323C364.127 339.207 364.224 339.118 364.339 339.122C364.38 339.124 364.42 339.137 364.453 339.161Z" fill="url(#paint16_linear_13_54)"/>
<path fill-rule="evenodd" clip-rule="evenodd" d="M384.87 257.311L385.409 259.437L387.325 260.373C387.429 260.424 387.472 260.549 387.421 260.652C387.405 260.684 387.382 260.712 387.353 260.732L385.55 261.99L385.249 264.204C385.233 264.318 385.128 264.398 385.014 264.383C384.975 264.377 384.939 264.361 384.909 264.337L383.347 263.04C383.298 263 383.234 262.984 383.172 262.997L381.185 263.407C381.072 263.431 380.962 263.358 380.938 263.245C380.93 263.207 380.933 263.167 380.947 263.13L381.719 261.033L380.717 259.076C380.665 258.973 380.705 258.847 380.808 258.795C380.84 258.779 380.875 258.771 380.91 258.772L383.041 258.846L384.514 257.222C384.591 257.137 384.723 257.13 384.808 257.208C384.839 257.235 384.86 257.271 384.87 257.311Z" fill="url(#paint17_linear_13_54)"/>
<path fill-rule="evenodd" clip-rule="evenodd" d="M338.375 171.757L338.913 173.883L340.829 174.819C340.933 174.869 340.976 174.994 340.925 175.098C340.91 175.13 340.886 175.158 340.857 175.178L339.054 176.435L338.753 178.65C338.737 178.764 338.632 178.844 338.518 178.829C338.479 178.823 338.443 178.807 338.413 178.782L336.851 177.486C336.802 177.446 336.738 177.43 336.676 177.442L334.689 177.853C334.576 177.876 334.466 177.804 334.442 177.691C334.435 177.652 334.438 177.613 334.451 177.576L335.223 175.479L334.221 173.522C334.169 173.419 334.209 173.293 334.312 173.241C334.344 173.224 334.379 173.216 334.414 173.218L336.545 173.292L338.018 171.668C338.095 171.582 338.227 171.576 338.313 171.653C338.343 171.681 338.364 171.717 338.375 171.757Z" fill="url(#paint18_linear_13_54)"/>
<path fill-rule="evenodd" clip-rule="evenodd" d="M475.737 192.586L476.53 192.515C477.425 192.442 478.238 192.401 478.977 192.392C479.621 191.03 480.587 189.788 482.037 188.435C482.564 187.943 483.389 187.972 483.881 188.5C484.372 189.028 484.343 189.854 483.816 190.346C482.981 191.125 482.35 191.837 481.871 192.564C483.768 192.859 484.939 193.527 485.812 194.53L485.977 194.726C486.44 195.279 486.368 196.103 485.816 196.566C485.299 197.001 484.543 196.965 484.069 196.503L483.978 196.405L483.837 196.238C483.275 195.596 482.449 195.17 480.793 195.032C480.631 195.666 480.522 196.358 480.443 197.141L480.282 199.105C480.222 199.824 479.592 200.358 478.874 200.298C478.156 200.239 477.622 199.607 477.682 198.889L477.812 197.248C477.883 196.445 477.981 195.71 478.12 195.023C477.484 195.055 476.776 195.109 475.988 195.186C475.271 195.255 474.633 194.729 474.564 194.011C474.494 193.294 475.02 192.655 475.737 192.586Z" fill="url(#paint19_linear_13_54)"/>
<path fill-rule="evenodd" clip-rule="evenodd" d="M370.389 282.737C370.153 283.334 369.637 284.161 369.037 284.943L369.554 285.48L370.153 286.119L370.287 286.247C370.345 286.299 370.391 286.33 370.424 286.339C370.618 286.367 370.753 286.546 370.726 286.741C370.698 286.932 370.521 287.07 370.327 287.042C370.151 287.038 369.513 286.789 368.754 286.171C368.616 286.059 368.479 285.93 368.339 285.789C367.901 286.278 367.458 286.699 367.076 286.96C366.513 287.349 366.025 287.38 365.792 287.222C365.563 287.069 365.344 286.554 365.716 285.513C365.774 285.324 365.975 285.225 366.161 285.284C366.347 285.343 366.449 285.541 366.391 285.729C366.334 285.922 366.326 286.099 366.326 286.24L366.542 286.093C366.618 286.038 366.696 285.977 366.768 285.904C367.029 285.647 367.32 285.334 367.613 284.996C367.15 284.456 366.677 283.823 366.295 283.092C366.108 282.735 365.959 282.357 365.818 281.959C365.72 281.737 365.821 281.476 366.044 281.377C366.267 281.279 366.527 281.381 366.625 281.603C367.05 282.496 367.595 283.266 368.131 283.925L368.31 284.14C368.799 283.499 369.22 282.851 369.41 282.357C369.516 282.088 369.821 281.954 370.09 282.057C370.362 282.164 370.496 282.468 370.389 282.737Z" fill="#E7EAEE"/>
<path fill-rule="evenodd" clip-rule="evenodd" d="M357.652 16.5761C358.447 16.4375 359.203 16.9703 359.342 17.7661C359.48 18.562 358.948 19.3195 358.153 19.4581C354.372 20.1174 349.821 22.3799 345.89 26.024C340.785 30.7559 337.019 37.4344 335.16 46.1521C333.662 53.1757 335.039 62.4232 338.954 70.1383C343.408 78.9159 350.568 84.8838 359.756 86.5637C369.187 88.2882 377.167 87.2172 386.079 84.0455L386.9 83.7472C387.158 83.6491 387.619 83.4712 388.197 83.2479L388.204 83.2452L388.209 83.2434L388.209 83.2433L388.21 83.243L388.21 83.2429C390.357 82.4138 394.105 80.966 395.182 80.6402C398.063 79.7679 400.028 79.8409 401.454 81.3613C402.006 81.9503 401.977 82.876 401.388 83.4288C400.836 83.947 399.989 83.9536 399.43 83.467L399.323 83.3631C398.902 82.9146 398.033 82.8626 396.283 83.3648L396.028 83.4403C395.078 83.7277 391.605 85.0684 389.44 85.9042L389.44 85.9042L389.438 85.9047L389.43 85.9078L389.425 85.91C388.593 86.231 387.957 86.4766 387.735 86.5577C378.109 90.0752 369.471 91.3138 359.23 89.4414C349.083 87.586 341.193 81.0098 336.349 71.4632C332.138 63.1665 330.661 53.2392 332.302 45.5414C334.287 36.2372 338.355 29.0213 343.905 23.8775C348.248 19.851 353.314 17.3325 357.652 16.5761ZM367.534 23.6424C368.326 23.4872 369.093 24.004 369.248 24.7967C369.404 25.5895 368.887 26.358 368.095 26.5133C356.253 28.835 346.729 37.8899 343.967 49.8669C343.032 53.9204 343.315 57.2163 344.232 58.4738L344.354 58.6314L344.363 58.6534L344.38 58.6401C344.709 58.3434 345.093 57.5853 345.391 56.41L345.453 56.1518C348.294 43.8336 357.676 34.2986 369.658 31.0965C370.438 30.8882 371.239 31.352 371.447 32.1325C371.655 32.913 371.192 33.7146 370.412 33.9229C359.616 36.8078 351.134 45.3163 348.412 56.3424L348.301 56.8098C347.299 61.1543 344.422 63.2282 342.091 60.4781C340.387 58.4666 339.969 54.1986 341.119 49.2089C344.143 36.0973 354.57 26.184 367.534 23.6424ZM385.107 39.6971C385.05 38.8913 384.35 38.2847 383.546 38.3422C369.324 39.3579 356.853 48.6043 351.891 62.2516C350.008 67.4301 349.896 72.0354 351.437 74.384C353.505 77.5342 356.758 75.7472 358.379 71.2867L358.55 70.829C362.938 59.2794 373.221 51.2129 385.258 49.5308C386.058 49.4191 386.615 48.68 386.504 47.88C386.392 47.0799 385.654 46.5219 384.854 46.6335C371.597 48.486 360.295 57.4648 355.633 70.2862L355.53 70.5601C355.012 71.8946 354.444 72.6991 354.015 72.9353L353.995 72.9481C353.992 72.9508 353.989 72.9532 353.987 72.9551C353.984 72.958 353.982 72.9597 353.981 72.9594C353.978 72.9591 353.977 72.955 353.973 72.9453C353.964 72.9237 353.943 72.8744 353.88 72.7775L353.802 72.6502C352.954 71.1451 353.083 67.5242 354.637 63.2521C359.201 50.699 370.672 42.1944 383.753 41.2602C384.558 41.2027 385.164 40.5029 385.107 39.6971ZM391.471 53.9165C392.276 53.859 392.975 54.4656 393.032 55.2714C393.09 56.0771 392.484 56.7769 391.679 56.8344C382.507 57.4895 374.464 63.4521 371.264 72.2534C370.316 74.8624 370.139 77.093 370.479 78.2227L370.52 78.3488L370.585 78.2555C370.748 78.0078 370.932 77.652 371.112 77.1906L371.189 76.9864C374.569 67.6899 382.764 61.1793 392.377 59.8361C393.176 59.7245 393.914 60.2825 394.026 61.0826C394.137 61.8826 393.58 62.6217 392.781 62.7334C384.372 63.9084 377.185 69.5262 374.089 77.5756L373.935 77.9869C372.682 81.4344 369.971 82.9237 368.238 80.2839C367.051 78.475 367.134 75.0601 368.518 71.2529C372.116 61.3574 381.159 54.6529 391.471 53.9165ZM399.172 65.7015C399.114 64.8958 398.415 64.2892 397.61 64.3466C390.705 64.8398 384.648 69.33 382.239 75.9571C381.289 78.5697 381.231 80.9476 382.11 82.2864C383.55 84.4815 385.789 83.2515 386.722 80.6866L386.849 80.3498C388.811 75.3313 393.31 71.8325 398.569 71.0976C399.368 70.9859 399.926 70.2468 399.814 69.4467C399.703 68.6467 398.964 68.0886 398.165 68.2003L397.795 68.256C392.134 69.1689 387.249 72.7661 384.716 77.9433L384.627 78.1275L384.682 77.9176C384.763 77.6121 384.864 77.2907 384.985 76.9576C386.996 71.4247 392.052 67.6764 397.818 67.2646C398.623 67.2071 399.229 66.5073 399.172 65.7015Z" fill="url(#paint20_linear_13_54)"/>
<path fill-rule="evenodd" clip-rule="evenodd" d="M391.471 53.9165C392.276 53.859 392.975 54.4656 393.032 55.2714C393.09 56.0771 392.484 56.7769 391.679 56.8344C382.507 57.4895 374.464 63.4521 371.264 72.2534C370.316 74.8624 370.139 77.093 370.479 78.2227L370.52 78.3488L370.585 78.2555C370.748 78.0078 370.932 77.652 371.112 77.1906L371.189 76.9864C374.569 67.6899 382.765 61.1793 392.377 59.8361C393.176 59.7245 393.914 60.2825 394.026 61.0826C394.137 61.8826 393.58 62.6217 392.781 62.7334C384.372 63.9084 377.185 69.5262 374.089 77.5756L373.935 77.9869C372.682 81.4344 369.971 82.9237 368.238 80.2839C367.051 78.475 367.134 75.0601 368.518 71.2529C372.116 61.3574 381.159 54.6529 391.471 53.9165Z" fill="url(#paint21_linear_13_54)"/>
<path d="M300.472 244.355C331.104 230.012 356.716 222.435 372.661 221.044C377.544 220.618 379.759 223.313 378.523 227.697C377.604 230.951 374.808 235.418 370.522 240.708C363.05 249.928 353.199 257.819 343.388 265.158C359.083 250.656 363.086 244.59 367.927 238.616L368.688 237.666C372.276 233.123 374.596 229.328 375.311 226.795L375.412 226.411C375.858 224.583 375.342 224.15 372.952 224.359C357.367 225.718 331.853 233.31 301.333 247.634C270.763 261.981 269.889 258.675 300.472 244.355Z" fill="white"/>
<path d="M160.372 197.955L160.596 198.488C162.148 202.172 163.761 205.82 165.591 209.798L166.303 211.342C166.069 211.499 165.763 211.665 165.425 211.813C164.941 212.024 164.449 212.173 164.079 212.223L163.961 212.235L163.784 212.021C162.4 210.317 160.795 207.42 159.635 204.54C159.017 203.006 158.577 201.599 158.379 200.518C158.298 200.077 158.26 199.707 158.264 199.426L158.272 199.241C158.275 199.197 158.275 199.173 158.264 199.17L158.308 199.14C158.555 198.97 159.186 198.6 160.123 198.09L160.372 197.955Z" fill="white"/>
<path fill-rule="evenodd" clip-rule="evenodd" d="M199.096 184.611C200.055 183.436 201.299 183.611 202.873 184.568L203.278 184.823L204.41 185.574C204.726 185.777 204.863 185.848 205.048 185.921C205.477 186.092 205.686 186.578 205.515 187.007C205.344 187.436 204.859 187.645 204.43 187.474L204.278 187.411C203.988 187.287 203.77 187.158 203.183 186.769L202.371 186.227C202.237 186.139 202.121 186.066 202.007 185.997C201.065 185.425 200.638 185.365 200.39 185.669C200.233 185.86 200.272 186.269 200.582 187.106L200.923 187.985C201.6 189.784 201.604 190.589 200.398 191.276C199.359 191.867 198.827 191.591 197.335 190.128L196.973 189.769C196.018 188.814 195.518 188.482 195.195 188.55C195.088 188.573 194.963 188.649 194.81 188.811C194.631 189.002 194.581 189.613 194.691 190.696L194.859 192.111C195.055 193.84 194.976 194.288 194.263 194.766C193.281 195.424 191.974 194.681 189.552 192.503C189.209 192.195 189.18 191.666 189.488 191.323C189.797 190.979 190.324 190.951 190.667 191.259C191.703 192.19 192.485 192.796 193.031 193.107L193.153 193.174L193.256 193.225L193.258 193.12L193.251 192.87C193.241 192.665 193.215 192.417 193.164 191.996L193.058 191.127C192.855 189.367 192.918 188.388 193.592 187.668C193.967 187.268 194.388 187.012 194.849 186.914C195.922 186.687 196.684 187.146 197.949 188.384L198.588 189.013C199.277 189.676 199.532 189.845 199.572 189.822C199.729 189.733 199.705 189.457 199.282 188.369L199.097 187.898C198.507 186.381 198.394 185.472 199.096 184.611Z" fill="url(#paint22_linear_13_54)"/>
<path fill-rule="evenodd" clip-rule="evenodd" d="M290.248 48.5669L289.455 48.6378C288.738 48.7072 288.213 49.3455 288.282 50.0634C288.324 50.4975 288.574 50.8613 288.923 51.0657L288.786 51.1638C288.197 51.5801 288.058 52.3951 288.473 52.9841C288.889 53.5731 289.703 53.713 290.292 53.2967L291.632 52.3464C291.593 52.6538 291.56 52.9711 291.531 53.2996L291.4 54.9406C291.341 55.6594 291.875 56.2905 292.593 56.3502C293.311 56.4099 293.941 55.8755 294.001 55.1568L294.162 53.1931C294.204 52.7727 294.255 52.3788 294.319 52.006C294.777 52.8761 294.868 53.5463 294.771 54.1802L294.733 54.3958L294.717 54.5285C294.668 55.1886 295.126 55.7913 295.792 55.9087C296.501 56.034 297.178 55.5597 297.303 54.8494L297.347 54.5964C297.486 53.7152 297.423 52.8279 297.066 51.843C297.253 51.9771 297.413 52.1264 297.556 52.2895L297.697 52.4572L297.788 52.5551C298.262 53.0166 299.017 53.0528 299.535 52.6181C300.087 52.1545 300.159 51.3308 299.696 50.7782L299.53 50.5816C299.472 50.5143 299.412 50.4485 299.351 50.3842C300.032 50.424 300.636 49.9272 300.72 49.2397C300.808 48.5238 300.3 47.8721 299.584 47.7841C298.354 47.6327 297.279 47.5986 296.289 47.6876C296.644 47.2694 297.056 46.8447 297.535 46.3978C298.062 45.906 298.091 45.0796 297.599 44.552C297.108 44.0244 296.282 43.9954 295.755 44.4872C294.871 45.3123 294.167 46.0963 293.606 46.8914C293.389 46.6613 293.162 46.4255 292.923 46.1835L292.359 45.6209C291.845 45.1156 291.019 45.1231 290.514 45.6378C290.009 46.1525 290.017 46.9794 290.531 47.4847C290.888 47.8355 291.217 48.1675 291.521 48.4821C291.116 48.5026 290.693 48.5308 290.248 48.5669Z" fill="url(#paint23_linear_13_54)"/>
<path fill-rule="evenodd" clip-rule="evenodd" d="M239.971 57.6157C239.658 57.2943 239.151 57.3033 238.838 57.6358C238.526 57.9682 238.526 58.4983 238.84 58.8197C239.137 59.1246 239.402 59.4072 239.639 59.6701C239.138 59.883 238.634 60.1588 238.095 60.4992L237.277 61.0246C236.917 61.2536 236.839 61.7119 237.102 62.0481C237.364 62.3843 237.868 62.4712 238.227 62.2422L239.208 61.6156C239.72 61.3015 240.182 61.0638 240.647 60.897C241.352 61.8787 241.499 62.508 241.409 63.0914L241.385 63.2298L241.374 63.3149C241.341 63.7384 241.619 64.1225 242.027 64.1945C242.462 64.2712 242.88 63.9638 242.96 63.5078L242.989 63.3454C243.123 62.4992 242.979 61.6466 242.373 60.5935C242.784 60.5871 243.232 60.6177 243.74 60.6827C244.183 60.7393 244.58 60.4586 244.627 60.0557C244.674 59.6528 244.354 59.2803 243.912 59.2237C242.942 59.0996 242.129 59.0854 241.384 59.1861C241.078 58.8092 240.723 58.4068 240.314 57.9737L239.971 57.6157Z" fill="#E7EAEE"/>
<path fill-rule="evenodd" clip-rule="evenodd" d="M71.8464 275.336L72.7454 277.336L74.7948 277.925C74.9056 277.957 74.9696 278.072 74.9378 278.183C74.928 278.218 74.9097 278.249 74.8845 278.274L73.3274 279.826L73.4146 282.059C73.4192 282.174 73.3294 282.271 73.2142 282.276C73.1753 282.277 73.1367 282.268 73.1028 282.248L71.34 281.243C71.285 281.212 71.2186 281.207 71.1597 281.231L69.2744 281.98C69.1672 282.023 69.0459 281.971 69.0033 281.863C68.9889 281.827 68.985 281.787 68.9919 281.749L69.3888 279.55L68.0626 277.796C67.993 277.704 68.0111 277.573 68.103 277.504C68.1314 277.482 68.1647 277.468 68.1999 277.463L70.3112 277.166L71.4795 275.311C71.541 275.213 71.6699 275.184 71.7674 275.245C71.8021 275.267 71.8296 275.299 71.8464 275.336Z" fill="url(#paint24_linear_13_54)"/>
<path fill-rule="evenodd" clip-rule="evenodd" d="M83.8338 164.336L84.7328 166.336L86.7822 166.925C86.893 166.957 86.9571 167.072 86.9253 167.183C86.9155 167.218 86.8971 167.249 86.8719 167.274L85.3149 168.826L85.4021 171.059C85.4066 171.174 85.3168 171.271 85.2017 171.276C85.1627 171.277 85.1241 171.268 85.0902 171.248L83.3275 170.243C83.2724 170.212 83.206 170.207 83.1471 170.231L81.2618 170.98C81.1547 171.023 81.0333 170.971 80.9908 170.863C80.9764 170.827 80.9724 170.787 80.9793 170.749L81.3762 168.55L80.05 166.796C79.9804 166.704 79.9985 166.573 80.0904 166.504C80.1188 166.482 80.1521 166.468 80.1873 166.463L82.2986 166.166L83.4669 164.311C83.5284 164.213 83.6573 164.184 83.7548 164.245C83.7895 164.267 83.817 164.299 83.8338 164.336Z" fill="url(#paint25_linear_13_54)"/>
<path d="M110.987 341.061C111.657 340.574 112.594 340.723 113.08 341.393C113.566 342.064 92.3672 359.349 84.1435 367.27L83.1877 368.198C78.4905 372.799 75.0272 376.783 73.0751 379.932C71.0066 383.27 70.8739 385.082 72.2093 385.823C77.2762 388.634 84.5612 390.004 94.9948 388.274L96.0669 388.091C100.038 387.394 129.914 380.872 129.441 381.045L129.257 381.1C128.315 381.35 116.15 385.561 111.952 386.631L111.444 386.76C105.026 388.376 100.003 389.484 95.4845 390.233C84.4435 392.064 76.555 391.664 70.7567 388.447C67.4107 386.591 67.6772 382.951 70.5286 378.351C72.7713 374.732 76.7162 370.261 82.0656 365.108C90.3992 357.081 102.121 347.506 110.987 341.061Z" fill="white"/>
<defs>
<linearGradient id="paint0_linear_13_54" x1="157.746" y1="100.052" x2="163.109" y2="69.6691" gradientUnits="userSpaceOnUse">
<stop stop-color="#0C4A6D"/>
<stop offset="1" stop-color="#3DAFD3"/>
</linearGradient>
<linearGradient id="paint1_linear_13_54" x1="192.873" y1="116" x2="192.873" y2="123.063" gradientUnits="userSpaceOnUse">
<stop stop-color="#0C4A6D"/>
<stop offset="1" stop-color="#3DAFD3"/>
</linearGradient>
<linearGradient id="paint2_linear_13_54" x1="221.007" y1="110.771" x2="221.007" y2="226.375" gradientUnits="userSpaceOnUse">
<stop stop-color="#0C4A6D"/>
<stop offset="1" stop-color="#3DAFD3"/>
</linearGradient>
<linearGradient id="paint3_linear_13_54" x1="241.906" y1="177.346" x2="241.906" y2="425.398" gradientUnits="userSpaceOnUse">
<stop stop-color="#0C4A6D"/>
<stop offset="1" stop-color="#3DAFD3"/>
</linearGradient>
<linearGradient id="paint4_linear_13_54" x1="424.781" y1="133.987" x2="424.781" y2="167.42" gradientUnits="userSpaceOnUse">
<stop stop-color="#0C4A6D"/>
<stop offset="1" stop-color="#3DAFD3"/>
</linearGradient>
<linearGradient id="paint5_linear_13_54" x1="143.886" y1="136.077" x2="143.886" y2="145.841" gradientUnits="userSpaceOnUse">
<stop stop-color="#0C4A6D"/>
<stop offset="1" stop-color="#3DAFD3"/>
</linearGradient>
<linearGradient id="paint6_linear_13_54" x1="331.56" y1="422.475" x2="331.56" y2="453.329" gradientUnits="userSpaceOnUse">
<stop stop-color="#0C4A6D"/>
<stop offset="1" stop-color="#3DAFD3"/>
</linearGradient>
<linearGradient id="paint7_linear_13_54" x1="302.758" y1="421" x2="302.758" y2="428.063" gradientUnits="userSpaceOnUse">
<stop stop-color="#0C4A6D"/>
<stop offset="1" stop-color="#3DAFD3"/>
</linearGradient>
<linearGradient id="paint8_linear_13_54" x1="376.364" y1="141.007" x2="376.364" y2="147.092" gradientUnits="userSpaceOnUse">
<stop stop-color="#0C4A6D"/>
<stop offset="1" stop-color="#3DAFD3"/>
</linearGradient>
<linearGradient id="paint9_linear_13_54" x1="224.629" y1="472.885" x2="224.629" y2="482.649" gradientUnits="userSpaceOnUse">
<stop stop-color="#0C4A6D"/>
<stop offset="1" stop-color="#3DAFD3"/>
</linearGradient>
<linearGradient id="paint10_linear_13_54" x1="224.629" y1="472.885" x2="224.629" y2="482.649" gradientUnits="userSpaceOnUse">
<stop stop-color="#0C4A6D"/>
<stop offset="1" stop-color="#3DAFD3"/>
</linearGradient>
<linearGradient id="paint11_linear_13_54" x1="265.888" y1="437.213" x2="265.888" y2="444.276" gradientUnits="userSpaceOnUse">
<stop stop-color="#0C4A6D"/>
<stop offset="1" stop-color="#3DAFD3"/>
</linearGradient>
<linearGradient id="paint12_linear_13_54" x1="152.767" y1="423.603" x2="155.184" y2="430.238" gradientUnits="userSpaceOnUse">
<stop stop-color="#0C4A6D"/>
<stop offset="1" stop-color="#3DAFD3"/>
</linearGradient>
<linearGradient id="paint13_linear_13_54" x1="128.925" y1="280.256" x2="128.925" y2="287.319" gradientUnits="userSpaceOnUse">
<stop stop-color="#0C4A6D"/>
<stop offset="1" stop-color="#3DAFD3"/>
</linearGradient>
<linearGradient id="paint14_linear_13_54" x1="22.0521" y1="368" x2="22.0521" y2="375.063" gradientUnits="userSpaceOnUse">
<stop stop-color="#0C4A6D"/>
<stop offset="1" stop-color="#3DAFD3"/>
</linearGradient>
<linearGradient id="paint15_linear_13_54" x1="117.295" y1="188.316" x2="117.295" y2="200.169" gradientUnits="userSpaceOnUse">
<stop stop-color="#0C4A6D"/>
<stop offset="1" stop-color="#3DAFD3"/>
</linearGradient>
<linearGradient id="paint16_linear_13_54" x1="365.739" y1="339.122" x2="365.739" y2="346.282" gradientUnits="userSpaceOnUse">
<stop stop-color="#0C4A6D"/>
<stop offset="1" stop-color="#3DAFD3"/>
</linearGradient>
<linearGradient id="paint17_linear_13_54" x1="384.068" y1="257.153" x2="384.068" y2="264.385" gradientUnits="userSpaceOnUse">
<stop stop-color="#0C4A6D"/>
<stop offset="1" stop-color="#3DAFD3"/>
</linearGradient>
<linearGradient id="paint18_linear_13_54" x1="337.572" y1="171.599" x2="337.572" y2="178.83" gradientUnits="userSpaceOnUse">
<stop stop-color="#0C4A6D"/>
<stop offset="1" stop-color="#3DAFD3"/>
</linearGradient>
<linearGradient id="paint19_linear_13_54" x1="480.42" y1="188.085" x2="480.42" y2="200.303" gradientUnits="userSpaceOnUse">
<stop stop-color="#0C4A6D"/>
<stop offset="1" stop-color="#3DAFD3"/>
</linearGradient>
<linearGradient id="paint20_linear_13_54" x1="366.748" y1="16.5542" x2="366.748" y2="90.3108" gradientUnits="userSpaceOnUse">
<stop stop-color="#0C4A6D"/>
<stop offset="1" stop-color="#3DAFD3"/>
</linearGradient>
<linearGradient id="paint21_linear_13_54" x1="386.522" y1="51.9776" x2="375.045" y2="83.4775" gradientUnits="userSpaceOnUse">
<stop stop-color="#0C4A6D"/>
<stop offset="1" stop-color="#3DAFD3"/>
</linearGradient>
<linearGradient id="paint22_linear_13_54" x1="197.425" y1="183.789" x2="197.425" y2="194.997" gradientUnits="userSpaceOnUse">
<stop stop-color="#0C4A6D"/>
<stop offset="1" stop-color="#3DAFD3"/>
</linearGradient>
<linearGradient id="paint23_linear_13_54" x1="294.482" y1="44.1365" x2="294.482" y2="56.3547" gradientUnits="userSpaceOnUse">
<stop stop-color="#0C4A6D"/>
<stop offset="1" stop-color="#3DAFD3"/>
</linearGradient>
<linearGradient id="paint24_linear_13_54" x1="71.4831" y1="275.213" x2="71.4831" y2="282.276" gradientUnits="userSpaceOnUse">
<stop stop-color="#0C4A6D"/>
<stop offset="1" stop-color="#3DAFD3"/>
</linearGradient>
<linearGradient id="paint25_linear_13_54" x1="83.4706" y1="164.213" x2="83.4706" y2="171.276" gradientUnits="userSpaceOnUse">
<stop stop-color="#0C4A6D"/>
<stop offset="1" stop-color="#3DAFD3"/>
</linearGradient>
</defs>
</svg>
