<svg width="45" height="48" viewBox="0 0 45 48" fill="none" xmlns="http://www.w3.org/2000/svg">
<path fill-rule="evenodd" clip-rule="evenodd" d="M24.6716 0.0185832C24.9546 0.00623677 25.2392 0 25.5252 0C36.2809 0 45.0001 8.81874 45.0001 19.6972C45.0001 30.5757 36.2809 39.3944 25.5252 39.3944C14.7695 39.3944 6.05032 30.5757 6.05032 19.6972C6.05032 17.1662 6.52231 14.7467 7.38211 12.5238C5.80534 15.3802 4.91626 18.6142 4.91626 22.0398C4.91626 33.6312 15.0957 43.0279 27.6527 43.0279C33.9616 43.0279 39.6704 40.6559 43.7895 36.8253C39.5833 43.5413 32.171 48 23.7291 48C10.6239 48 0 37.2548 0 24C0 10.7452 10.6239 0 23.7291 0C24.0447 0 24.3589 0.00623275 24.6716 0.0185832Z" fill="url(#paint0_linear_13_46)"/>
<defs>
<linearGradient id="paint0_linear_13_46" x1="22.5" y1="0" x2="22.5" y2="48" gradientUnits="userSpaceOnUse">
<stop stop-color="#D8E7F0"/>
<stop offset="1" stop-color="white"/>
</linearGradient>
</defs>
</svg>
